ISO-10303-21;
HEADER;
FILE_DESCRIPTION (( 'STEP AP214' ),
    '1' );
FILE_NAME ('YG0043AA.STEP',
    '2024-08-30T07:17:41',
    ( 'LENOVO' ),
    ( '' ),
    'SwSTEP 2.0',
    'SolidWorks 2021',
    '' );
FILE_SCHEMA (( 'AUTOMOTIVE_DESIGN' ));
ENDSEC;

DATA;
#1 = ORIENTED_EDGE ( 'NONE', *, *, #952, .F. ) ;
#2 = AXIS2_PLACEMENT_3D ( 'NONE', #923, #860, #657 ) ;
#3 = ORIENTED_EDGE ( 'NONE', *, *, #913, .T. ) ;
#4 = APPLICATION_CONTEXT ( 'automotive_design' ) ;
#5 =( GEOMETRIC_REPRESENTATION_CONTEXT ( 3 ) GLOBAL_UNCERTAINTY_ASSIGNED_CONTEXT ( ( #784 ) ) GLOBAL_UNIT_ASSIGNED_CONTEXT ( ( #455, #162, #377 ) ) REPRESENTATION_CONTEXT ( 'NONE', 'WORKASPACE' ) );
#6 = CARTESIAN_POINT ( 'NONE',  ( -6.499999999999994671, 3.950000000000000178, 7.499999999999999112 ) ) ;
#7 = ORIENTED_EDGE ( 'NONE', *, *, #952, .T. ) ;
#8 = DIRECTION ( 'NONE',  ( -0.000000000000000000, -1.000000000000000000, 0.000000000000000000 ) ) ;
#9 = ORIENTED_EDGE ( 'NONE', *, *, #139, .F. ) ;
#10 = VERTEX_POINT ( 'NONE', #509 ) ;
#11 = DIRECTION ( 'NONE',  ( 0.000000000000000000, -1.000000000000000000, -6.938893903907222067E-15 ) ) ;
#12 = EDGE_LOOP ( 'NONE', ( #111, #1002, #988, #773 ) ) ;
#13 = DIRECTION ( 'NONE',  ( 0.000000000000000000, 0.000000000000000000, 1.000000000000000000 ) ) ;
#14 = EDGE_LOOP ( 'NONE', ( #312, #746, #445, #713 ) ) ;
#15 = DIRECTION ( 'NONE',  ( 0.000000000000000000, 0.000000000000000000, 1.000000000000000000 ) ) ;
#16 = VERTEX_POINT ( 'NONE', #105 ) ;
#17 = ORIENTED_EDGE ( 'NONE', *, *, #848, .T. ) ;
#18 = EDGE_CURVE ( 'NONE', #700, #679, #443, .T. ) ;
#19 = VERTEX_POINT ( 'NONE', #194 ) ;
#20 = CARTESIAN_POINT ( 'NONE',  ( -7.500000000000001776, 3.950000000000000178, 6.499999999999992006 ) ) ;
#21 = VERTEX_POINT ( 'NONE', #720 ) ;
#22 = ADVANCED_BREP_SHAPE_REPRESENTATION ( 'YG0043AA', ( #421, #492, #354 ), #248 ) ;
#23 = CARTESIAN_POINT ( 'NONE',  ( 1.080000000000000293, 0.000000000000000000, 1.080000000000000071 ) ) ;
#24 = VERTEX_POINT ( 'NONE', #411 ) ;
#25 = EDGE_LOOP ( 'NONE', ( #26, #985, #697, #68 ) ) ;
#26 = ORIENTED_EDGE ( 'NONE', *, *, #678, .F. ) ;
#27 = DIRECTION ( 'NONE',  ( -1.000000000000000000, 0.000000000000000000, 0.000000000000000000 ) ) ;
#28 = CARTESIAN_POINT ( 'NONE',  ( 1.080000000000000293, 0.000000000000000000, 1.080000000000000071 ) ) ;
#29 = EDGE_CURVE ( 'NONE', #32, #376, #452, .T. ) ;
#30 = EDGE_LOOP ( 'NONE', ( #123, #84 ) ) ;
#31 = DIRECTION ( 'NONE',  ( -1.000000000000000000, 0.000000000000000000, 0.000000000000000000 ) ) ;
#32 = VERTEX_POINT ( 'NONE', #954 ) ;
#33 = AXIS2_PLACEMENT_3D ( 'NONE', #94, #889, #898 ) ;
#34 = EDGE_LOOP ( 'NONE', ( #687, #460, #1, #316 ) ) ;
#35 = DIRECTION ( 'NONE',  ( 6.938893903907222067E-15, 0.000000000000000000, -1.000000000000000000 ) ) ;
#36 = ADVANCED_FACE ( 'NONE', ( #423 ), #113, .T. ) ;
#37 = ORIENTED_EDGE ( 'NONE', *, *, #832, .T. ) ;
#38 = EDGE_LOOP ( 'NONE', ( #437, #435, #9, #969 ) ) ;
#39 = DIRECTION ( 'NONE',  ( 0.000000000000000000, 1.000000000000000000, 0.000000000000000000 ) ) ;
#40 = VERTEX_POINT ( 'NONE', #276 ) ;
#41 = ORIENTED_EDGE ( 'NONE', *, *, #261, .F. ) ;
#42 = EDGE_CURVE ( 'NONE', #307, #658, #85, .T. ) ;
#43 = AXIS2_PLACEMENT_3D ( 'NONE', #644, #930, #736 ) ;
#44 = EDGE_LOOP ( 'NONE', ( #56, #58, #1001, #705 ) ) ;
#45 = CARTESIAN_POINT ( 'NONE',  ( 7.500000000000001776, 0.2500000000000002220, -6.499999999999992006 ) ) ;
#46 = EDGE_CURVE ( 'NONE', #722, #24, #100, .T. ) ;
#47 = CARTESIAN_POINT ( 'NONE',  ( 7.250000000000000000, 4.200000000000000178, -6.499999999999993783 ) ) ;
#48 = EDGE_LOOP ( 'NONE', ( #331, #17, #303, #322 ) ) ;
#49 = AXIS2_PLACEMENT_3D ( 'NONE', #286, #476, #776 ) ;
#50 = ORIENTED_EDGE ( 'NONE', *, *, #413, .F. ) ;
#51 = ORIENTED_EDGE ( 'NONE', *, *, #597, .F. ) ;
#52 = DIRECTION ( 'NONE',  ( 1.000000000000000000, 0.000000000000000000, 0.000000000000000000 ) ) ;
#53 = VERTEX_POINT ( 'NONE', #128 ) ;
#54 = CARTESIAN_POINT ( 'NONE',  ( -7.250000000000000888, 0.000000000000000000, 6.499999999999993783 ) ) ;
#55 = CARTESIAN_POINT ( 'NONE',  ( -6.500000000000001776, 4.200000000000000178, 6.499999999999999112 ) ) ;
#56 = ORIENTED_EDGE ( 'NONE', *, *, #288, .F. ) ;
#57 = CARTESIAN_POINT ( 'NONE',  ( 1.080000000000000293, 4.200000000000000178, 2.955000000000000071 ) ) ;
#58 = ORIENTED_EDGE ( 'NONE', *, *, #589, .F. ) ;
#59 = EDGE_CURVE ( 'NONE', #777, #249, #449, .T. ) ;
#60 = VERTEX_POINT ( 'NONE', #592 ) ;
#61 = CARTESIAN_POINT ( 'NONE',  ( -6.499999999999994671, 0.000000000000000000, 7.249999999999998224 ) ) ;
#62 = VERTEX_POINT ( 'NONE', #739 ) ;
#63 = DIRECTION ( 'NONE',  ( -0.000000000000000000, -1.000000000000000000, 0.000000000000000000 ) ) ;
#64 = SURFACE_STYLE_USAGE ( .BOTH. , #300 ) ;
#65 = ADVANCED_FACE ( 'NONE', ( #786 ), #457, .T. ) ;
#66 = ORIENTED_EDGE ( 'NONE', *, *, #185, .F. ) ;
#67 = AXIS2_PLACEMENT_3D ( 'NONE', #936, #82, #393 ) ;
#68 = ORIENTED_EDGE ( 'NONE', *, *, #525, .F. ) ;
#69 = EDGE_LOOP ( 'NONE', ( #719, #374, #66, #343 ) ) ;
#70 = CARTESIAN_POINT ( 'NONE',  ( 7.500000000000001776, 0.2500000000000002220, -6.499999999999992006 ) ) ;
#71 = ORIENTED_EDGE ( 'NONE', *, *, #483, .F. ) ;
#72 = CARTESIAN_POINT ( 'NONE',  ( -6.499999999999994671, 4.200000000000000178, 7.499999999999999112 ) ) ;
#73 = CARTESIAN_POINT ( 'NONE',  ( 1.080000000000000293, 4.200000000000000178, 1.080000000000000071 ) ) ;
#74 = ORIENTED_EDGE ( 'NONE', *, *, #614, .F. ) ;
#75 = ORIENTED_EDGE ( 'NONE', *, *, #42, .F. ) ;
#76 = ORIENTED_EDGE ( 'NONE', *, *, #523, .F. ) ;
#77 = DIRECTION ( 'NONE',  ( 0.000000000000000000, 0.000000000000000000, -1.000000000000000000 ) ) ;
#78 = VERTEX_POINT ( 'NONE', #6 ) ;
#79 = DIRECTION ( 'NONE',  ( -0.000000000000000000, -1.000000000000000000, -0.000000000000000000 ) ) ;
#80 = ORIENTED_EDGE ( 'NONE', *, *, #59, .T. ) ;
#81 = AXIS2_PLACEMENT_3D ( 'NONE', #489, #602, #842 ) ;
#82 = DIRECTION ( 'NONE',  ( 0.000000000000000000, 1.000000000000000000, -0.000000000000000000 ) ) ;
#83 = EDGE_LOOP ( 'NONE', ( #650, #458 ) ) ;
#84 = ORIENTED_EDGE ( 'NONE', *, *, #678, .T. ) ;
#85 = CIRCLE ( 'NONE', #319, 0.3999999999999999667 ) ;
#86 = CARTESIAN_POINT ( 'NONE',  ( 1.080000000000000293, 4.200000000000000178, 1.080000000000000071 ) ) ;
#87 = VECTOR ( 'NONE', #373, 1000.000000000000000 ) ;
#88 = CARTESIAN_POINT ( 'NONE',  ( 1.080000000000000293, 0.000000000000000000, 1.080000000000000071 ) ) ;
#89 = ORIENTED_EDGE ( 'NONE', *, *, #246, .F. ) ;
#90 = FILL_AREA_STYLE_COLOUR ( '', #250 ) ;
#91 = PRODUCT_DEFINITION ( 'UNKNOWN', '', #618, #415 ) ;
#92 = CIRCLE ( 'NONE', #81, 0.2500000000000002220 ) ;
#93 = DIRECTION ( 'NONE',  ( 0.000000000000000000, 0.000000000000000000, -1.000000000000000000 ) ) ;
#94 = CARTESIAN_POINT ( 'NONE',  ( 6.500000000000001776, 3.950000000000000178, -6.499999999999999112 ) ) ;
#95 = ORIENTED_EDGE ( 'NONE', *, *, #693, .F. ) ;
#96 = ORIENTED_EDGE ( 'NONE', *, *, #959, .T. ) ;
#97 = ORIENTED_EDGE ( 'NONE', *, *, #583, .F. ) ;
#98 = PRODUCT_CONTEXT ( 'NONE', #4, 'mechanical' ) ;
#99 = DIRECTION ( 'NONE',  ( 0.000000000000000000, 0.000000000000000000, -1.000000000000000000 ) ) ;
#100 = CIRCLE ( 'NONE', #626, 0.2500000000000002220 ) ;
#101 = EDGE_CURVE ( 'NONE', #62, #32, #789, .T. ) ;
#102 = CARTESIAN_POINT ( 'NONE',  ( -6.499999999999994671, 4.200000000000000178, -7.499999999999999112 ) ) ;
#103 = ORIENTED_EDGE ( 'NONE', *, *, #595, .F. ) ;
#104 = EDGE_CURVE ( 'NONE', #338, #396, #425, .T. ) ;
#105 = CARTESIAN_POINT ( 'NONE',  ( -7.250000000000000888, 4.200000000000000178, -6.499999999999992006 ) ) ;
#106 = CARTESIAN_POINT ( 'NONE',  ( 1.080000000000000293, -2.350000000000000089, 1.479999999999999982 ) ) ;
#107 = ORIENTED_EDGE ( 'NONE', *, *, #275, .F. ) ;
#108 = DIRECTION ( 'NONE',  ( 1.000000000000000000, 0.000000000000000000, 0.000000000000000000 ) ) ;
#109 = ADVANCED_FACE ( 'NONE', ( #757 ), #428, .T. ) ;
#110 = DIRECTION ( 'NONE',  ( 0.000000000000000000, 0.000000000000000000, 1.000000000000000000 ) ) ;
#111 = ORIENTED_EDGE ( 'NONE', *, *, #998, .F. ) ;
#112 = CARTESIAN_POINT ( 'NONE',  ( 6.499999999999994671, 3.950000000000000178, 7.499999999999999112 ) ) ;
#113 = TOROIDAL_SURFACE ( 'NONE', #944, 0.7500000000000000000, 0.2500000000000000000 ) ;
#114 = ORIENTED_EDGE ( 'NONE', *, *, #621, .F. ) ;
#115 = ORIENTED_EDGE ( 'NONE', *, *, #388, .T. ) ;
#116 = DIRECTION ( 'NONE',  ( 1.000000000000000000, 0.000000000000000000, 0.000000000000000000 ) ) ;
#117 = EDGE_CURVE ( 'NONE', #376, #21, #92, .T. ) ;
#118 = AXIS2_PLACEMENT_3D ( 'NONE', #600, #211, #339 ) ;
#119 = CARTESIAN_POINT ( 'NONE',  ( -7.250000000000000888, 0.000000000000000000, -6.499999999999992006 ) ) ;
#120 = ORIENTED_EDGE ( 'NONE', *, *, #101, .F. ) ;
#121 = CARTESIAN_POINT ( 'NONE',  ( -6.500000000000001776, 0.2500000000000002220, 6.499999999999999112 ) ) ;
#122 = STYLED_ITEM ( 'NONE', ( #518 ), #421 ) ;
#123 = ORIENTED_EDGE ( 'NONE', *, *, #42, .T. ) ;
#124 = DIRECTION ( 'NONE',  ( 6.938893903907222067E-15, 0.000000000000000000, -1.000000000000000000 ) ) ;
#125 = VECTOR ( 'NONE', #438, 1000.000000000000000 ) ;
#126 = PLANE ( 'NONE',  #461 ) ;
#127 = FACE_OUTER_BOUND ( 'NONE', #44, .T. ) ;
#128 = CARTESIAN_POINT ( 'NONE',  ( 6.499999999999996447, 4.200000000000000178, 7.249999999999998224 ) ) ;
#129 = CIRCLE ( 'NONE', #536, 0.7499999999999997780 ) ;
#130 = AXIS2_PLACEMENT_3D ( 'NONE', #398, #547, #375 ) ;
#131 = CARTESIAN_POINT ( 'NONE',  ( 6.499999999999994671, 3.950000000000000178, -7.249999999999998224 ) ) ;
#132 = ADVANCED_FACE ( 'NONE', ( #432 ), #481, .T. ) ;
#133 = PRESENTATION_LAYER_ASSIGNMENT (  '', '', ( #953 ) ) ;
#134 = CIRCLE ( 'NONE', #306, 1.000000000000000000 ) ;
#135 = CARTESIAN_POINT ( 'NONE',  ( 6.499999999999994671, 4.200000000000000178, 7.499999999999999112 ) ) ;
#136 = CIRCLE ( 'NONE', #330, 1.040772485184050078 ) ;
#137 = CIRCLE ( 'NONE', #253, 0.7499999999999997780 ) ;
#138 = AXIS2_PLACEMENT_3D ( 'NONE', #800, #315, #302 ) ;
#139 = EDGE_CURVE ( 'NONE', #53, #695, #834, .T. ) ;
#140 = CARTESIAN_POINT ( 'NONE',  ( 1.080000000000000293, 0.000000000000000000, 1.479999999999999982 ) ) ;
#141 = VECTOR ( 'NONE', #463, 1000.000000000000000 ) ;
#142 = CIRCLE ( 'NONE', #699, 0.3999999999999999667 ) ;
#143 = DIRECTION ( 'NONE',  ( 0.000000000000000000, -0.6427876096865379196, 0.7660444431189792347 ) ) ;
#144 = CIRCLE ( 'NONE', #296, 1.000000000000000000 ) ;
#145 = DIRECTION ( 'NONE',  ( 0.000000000000000000, 0.000000000000000000, -1.000000000000000000 ) ) ;
#146 = CARTESIAN_POINT ( 'NONE',  ( 1.080000000000000293, -5.831370849898474873, 1.080000000000000071 ) ) ;
#147 = FACE_OUTER_BOUND ( 'NONE', #1006, .T. ) ;
#148 = LINE ( 'NONE', #197, #508 ) ;
#149 =( NAMED_UNIT ( * ) SI_UNIT ( $, .STERADIAN. ) SOLID_ANGLE_UNIT ( ) );
#150 = FACE_OUTER_BOUND ( 'NONE', #344, .T. ) ;
#151 = TOROIDAL_SURFACE ( 'NONE', #2, 0.7500000000000000000, 0.2500000000000000000 ) ;
#152 = EDGE_CURVE ( 'NONE', #410, #53, #177, .T. ) ;
#153 = DIRECTION ( 'NONE',  ( 6.938893903907222067E-15, 0.000000000000000000, -1.000000000000000000 ) ) ;
#154 = EDGE_CURVE ( 'NONE', #689, #451, #565, .T. ) ;
#155 = DIRECTION ( 'NONE',  ( -1.000000000000000000, 0.000000000000000000, -0.000000000000000000 ) ) ;
#156 = FILL_AREA_STYLE_COLOUR ( '', #501 ) ;
#157 = AXIS2_PLACEMENT_3D ( 'NONE', #632, #278, #11 ) ;
#158 = DIRECTION ( 'NONE',  ( -1.000000000000000000, -0.000000000000000000, -0.000000000000000000 ) ) ;
#159 = CIRCLE ( 'NONE', #864, 1.000000000000000000 ) ;
#160 = CIRCLE ( 'NONE', #282, 0.2500000000000002220 ) ;
#161 = VECTOR ( 'NONE', #356, 1000.000000000000000 ) ;
#162 =( NAMED_UNIT ( * ) PLANE_ANGLE_UNIT ( ) SI_UNIT ( $, .RADIAN. ) );
#163 = FACE_OUTER_BOUND ( 'NONE', #34, .T. ) ;
#164 = CARTESIAN_POINT ( 'NONE',  ( 1.080000000000000293, 4.200000000000000178, 1.080000000000000071 ) ) ;
#165 = CIRCLE ( 'NONE', #472, 1.000000000000000000 ) ;
#166 = EDGE_CURVE ( 'NONE', #317, #631, #895, .T. ) ;
#167 = CARTESIAN_POINT ( 'NONE',  ( 6.500000000000001776, 3.950000000000000178, 6.499999999999999112 ) ) ;
#168 = VECTOR ( 'NONE', #718, 1000.000000000000000 ) ;
#169 = MECHANICAL_DESIGN_GEOMETRIC_PRESENTATION_REPRESENTATION (  '', ( #953 ), #696 ) ;
#170 = CONICAL_SURFACE ( 'NONE', #515, 1.875000000000000222, 0.8726646259971666542 ) ;
#171 = CYLINDRICAL_SURFACE ( 'NONE', #783, 0.2500000000000002220 ) ;
#172 = DIRECTION ( 'NONE',  ( 0.000000000000000000, 1.000000000000000000, -0.000000000000000000 ) ) ;
#173 = AXIS2_PLACEMENT_3D ( 'NONE', #247, #654, #747 ) ;
#174 = CYLINDRICAL_SURFACE ( 'NONE', #277, 0.2500000000000002220 ) ;
#175 = DIRECTION ( 'NONE',  ( 0.000000000000000000, 0.000000000000000000, 1.000000000000000000 ) ) ;
#176 = FACE_OUTER_BOUND ( 'NONE', #634, .T. ) ;
#177 = LINE ( 'NONE', #532, #161 ) ;
#178 = LINE ( 'NONE', #837, #539 ) ;
#179 = FACE_OUTER_BOUND ( 'NONE', #890, .T. ) ;
#180 = DIRECTION ( 'NONE',  ( -1.000000000000000000, 0.000000000000000000, 0.000000000000000000 ) ) ;
#181 = DIRECTION ( 'NONE',  ( 0.000000000000000000, 0.000000000000000000, -1.000000000000000000 ) ) ;
#182 = AXIS2_PLACEMENT_3D ( 'NONE', #540, #604, #673 ) ;
#183 = VECTOR ( 'NONE', #193, 1000.000000000000000 ) ;
#184 = DIRECTION ( 'NONE',  ( -1.000000000000000000, -0.000000000000000000, -0.000000000000000000 ) ) ;
#185 = EDGE_CURVE ( 'NONE', #304, #249, #229, .T. ) ;
#186 = CIRCLE ( 'NONE', #43, 0.7499999999999997780 ) ;
#187 = CARTESIAN_POINT ( 'NONE',  ( -6.499999999999994671, 4.200000000000000178, 7.499999999999999112 ) ) ;
#188 = CYLINDRICAL_SURFACE ( 'NONE', #289, 0.3999999999999999667 ) ;
#189 = DIRECTION ( 'NONE',  ( -0.000000000000000000, -1.000000000000000000, -0.000000000000000000 ) ) ;
#190 = AXIS2_PLACEMENT_3D ( 'NONE', #391, #484, #636 ) ;
#191 = ADVANCED_FACE ( 'NONE', ( #567 ), #921, .T. ) ;
#192 = AXIS2_PLACEMENT_3D ( 'NONE', #958, #810, #892 ) ;
#193 = DIRECTION ( 'NONE',  ( -0.000000000000000000, -1.000000000000000000, -0.000000000000000000 ) ) ;
#194 = CARTESIAN_POINT ( 'NONE',  ( -7.500000000000001776, 3.950000000000000178, -6.499999999999992006 ) ) ;
#195 =( LENGTH_UNIT ( ) NAMED_UNIT ( * ) SI_UNIT ( .MILLI., .METRE. ) );
#196 = APPLICATION_PROTOCOL_DEFINITION ( 'draft international standard', 'automotive_design', 1998, #4 ) ;
#197 = CARTESIAN_POINT ( 'NONE',  ( 7.500000000000001776, 4.200000000000000178, 6.499999999999992006 ) ) ;
#198 = CARTESIAN_POINT ( 'NONE',  ( -7.500000000000001776, 4.200000000000000178, 6.499999999999992006 ) ) ;
#199 = AXIS2_PLACEMENT_3D ( 'NONE', #817, #366, #462 ) ;
#200 = EDGE_CURVE ( 'NONE', #19, #62, #562, .T. ) ;
#201 = AXIS2_PLACEMENT_3D ( 'NONE', #941, #795, #145 ) ;
#202 = DIRECTION ( 'NONE',  ( -0.000000000000000000, -1.000000000000000000, -0.000000000000000000 ) ) ;
#203 = LINE ( 'NONE', #863, #544 ) ;
#204 = CARTESIAN_POINT ( 'NONE',  ( 7.500000000000001776, 3.950000000000000178, 6.499999999999992006 ) ) ;
#205 = CYLINDRICAL_SURFACE ( 'NONE', #118, 1.000000000000000000 ) ;
#206 = DIRECTION ( 'NONE',  ( 0.000000000000000000, 0.000000000000000000, -1.000000000000000000 ) ) ;
#207 = LINE ( 'NONE', #311, #168 ) ;
#208 = PLANE ( 'NONE',  #938 ) ;
#209 = FACE_OUTER_BOUND ( 'NONE', #434, .T. ) ;
#210 = EDGE_CURVE ( 'NONE', #559, #21, #917, .T. ) ;
#211 = DIRECTION ( 'NONE',  ( -0.000000000000000000, -1.000000000000000000, -0.000000000000000000 ) ) ;
#212 = ADVANCED_FACE ( 'NONE', ( #900 ), #257, .T. ) ;
#213 = VECTOR ( 'NONE', #318, 1000.000000000000000 ) ;
#214 = LINE ( 'NONE', #198, #183 ) ;
#215 = AXIS2_PLACEMENT_3D ( 'NONE', #267, #444, #153 ) ;
#216 = CARTESIAN_POINT ( 'NONE',  ( -7.250000000000000888, 0.2500000000000002220, -6.499999999999993783 ) ) ;
#217 = DIRECTION ( 'NONE',  ( -1.000000000000000000, 0.000000000000000000, 0.000000000000000000 ) ) ;
#218 = FACE_OUTER_BOUND ( 'NONE', #918, .T. ) ;
#219 = LINE ( 'NONE', #984, #548 ) ;
#220 = CIRCLE ( 'NONE', #663, 0.7499999999999997780 ) ;
#221 = ADVANCED_FACE ( 'NONE', ( #556, #585 ), #762, .F. ) ;
#222 = FACE_BOUND ( 'NONE', #721, .T. ) ;
#223 = CIRCLE ( 'NONE', #793, 0.2500000000000000000 ) ;
#224 = CARTESIAN_POINT ( 'NONE',  ( -6.500000000000001776, 4.200000000000000178, -6.499999999999999112 ) ) ;
#225 = CIRCLE ( 'NONE', #960, 1.000000000000000000 ) ;
#226 = LINE ( 'NONE', #886, #233 ) ;
#227 = DIRECTION ( 'NONE',  ( -0.000000000000000000, -1.000000000000000000, 0.000000000000000000 ) ) ;
#228 = AXIS2_PLACEMENT_3D ( 'NONE', #28, #593, #526 ) ;
#229 = CIRCLE ( 'NONE', #932, 0.2500000000000002220 ) ;
#230 = FACE_OUTER_BOUND ( 'NONE', #382, .T. ) ;
#231 = CARTESIAN_POINT ( 'NONE',  ( 7.500000000000001776, 0.2500000000000002220, 6.499999999999992006 ) ) ;
#232 = VECTOR ( 'NONE', #608, 1000.000000000000000 ) ;
#233 = VECTOR ( 'NONE', #723, 1000.000000000000000 ) ;
#234 = CIRCLE ( 'NONE', #138, 1.040772485184050078 ) ;
#235 = DIRECTION ( 'NONE',  ( 2.168404344971008868E-14, 0.000000000000000000, -1.000000000000000000 ) ) ;
#236 = CIRCLE ( 'NONE', #734, 0.2500000000000002220 ) ;
#237 = ADVANCED_FACE ( 'NONE', ( #222, #254 ), #968, .F. ) ;
#238 = DIRECTION ( 'NONE',  ( 0.000000000000000000, 1.000000000000000000, -0.000000000000000000 ) ) ;
#239 = CIRCLE ( 'NONE', #182, 0.7499999999999997780 ) ;
#240 = CARTESIAN_POINT ( 'NONE',  ( -7.250000000000000888, 0.2500000000000002220, 6.499999999999992006 ) ) ;
#241 = CIRCLE ( 'NONE', #262, 0.2500000000000002220 ) ;
#242 = DIRECTION ( 'NONE',  ( 0.000000000000000000, 0.000000000000000000, -1.000000000000000000 ) ) ;
#243 = EDGE_LOOP ( 'NONE', ( #426, #989 ) ) ;
#244 = LINE ( 'NONE', #819, #908 ) ;
#245 = SURFACE_SIDE_STYLE ('',( #831 ) ) ;
#246 = EDGE_CURVE ( 'NONE', #376, #703, #219, .T. ) ;
#247 = CARTESIAN_POINT ( 'NONE',  ( 1.080000000000000293, 4.200000000000000178, 1.080000000000000071 ) ) ;
#248 =( GEOMETRIC_REPRESENTATION_CONTEXT ( 3 ) GLOBAL_UNCERTAINTY_ASSIGNED_CONTEXT ( ( #283 ) ) GLOBAL_UNIT_ASSIGNED_CONTEXT ( ( #866, #263, #937 ) ) REPRESENTATION_CONTEXT ( 'NONE', 'WORKASPACE' ) );
#249 = VERTEX_POINT ( 'NONE', #70 ) ;
#250 = COLOUR_RGB ( '',0.7921568627450980005, 0.8196078431372548767, 0.9333333333333333481 ) ;
#251 = DIRECTION ( 'NONE',  ( -0.000000000000000000, -1.000000000000000000, 0.000000000000000000 ) ) ;
#252 = EDGE_LOOP ( 'NONE', ( #672, #3, #324, #967, #983, #115, #667, #790 ) ) ;
#253 = AXIS2_PLACEMENT_3D ( 'NONE', #55, #469, #684 ) ;
#254 = FACE_OUTER_BOUND ( 'NONE', #252, .T. ) ;
#255 = FACE_OUTER_BOUND ( 'NONE', #378, .T. ) ;
#256 = DIRECTION ( 'NONE',  ( 0.000000000000000000, 0.000000000000000000, 1.000000000000000000 ) ) ;
#257 = TOROIDAL_SURFACE ( 'NONE', #201, 0.7500000000000000000, 0.2500000000000000000 ) ;
#258 = CARTESIAN_POINT ( 'NONE',  ( -6.499999999999996447, 4.200000000000000178, -7.249999999999999112 ) ) ;
#259 = DIRECTION ( 'NONE',  ( 0.000000000000000000, 1.000000000000000000, 0.000000000000000000 ) ) ;
#260 = CARTESIAN_POINT ( 'NONE',  ( 1.080000000000000293, 0.000000000000000000, 0.6800000000000000488 ) ) ;
#261 = EDGE_CURVE ( 'NONE', #32, #912, #876, .T. ) ;
#262 = AXIS2_PLACEMENT_3D ( 'NONE', #216, #309, #987 ) ;
#263 =( NAMED_UNIT ( * ) PLANE_ANGLE_UNIT ( ) SI_UNIT ( $, .RADIAN. ) );
#264 = DIRECTION ( 'NONE',  ( 0.000000000000000000, 0.000000000000000000, 1.000000000000000000 ) ) ;
#265 = DIRECTION ( 'NONE',  ( 0.000000000000000000, 0.000000000000000000, -1.000000000000000000 ) ) ;
#266 = AXIS2_PLACEMENT_3D ( 'NONE', #807, #497, #642 ) ;
#267 = CARTESIAN_POINT ( 'NONE',  ( 6.499999999999996447, 3.950000000000000178, 7.249999999999998224 ) ) ;
#268 = ADVANCED_FACE ( 'NONE', ( #491 ), #171, .T. ) ;
#269 = ADVANCED_FACE ( 'NONE', ( #824 ), #493, .T. ) ;
#270 = EDGE_CURVE ( 'NONE', #915, #777, #847, .T. ) ;
#271 = CARTESIAN_POINT ( 'NONE',  ( -6.499999999999996447, 0.000000000000000000, -7.249999999999998224 ) ) ;
#272 = DIRECTION ( 'NONE',  ( 0.000000000000000000, 0.000000000000000000, -1.000000000000000000 ) ) ;
#273 = DIRECTION ( 'NONE',  ( -0.000000000000000000, -0.000000000000000000, 1.000000000000000000 ) ) ;
#274 = AXIS2_PLACEMENT_3D ( 'NONE', #596, #63, #955 ) ;
#275 = EDGE_CURVE ( 'NONE', #915, #367, #812, .T. ) ;
#276 = CARTESIAN_POINT ( 'NONE',  ( 6.499999999999994671, 0.2500000000000002220, -7.499999999999999112 ) ) ;
#277 = AXIS2_PLACEMENT_3D ( 'NONE', #580, #265, #31 ) ;
#278 = DIRECTION ( 'NONE',  ( 0.000000000000000000, -6.938893903907221278E-15, 1.000000000000000000 ) ) ;
#279 = DIRECTION ( 'NONE',  ( 1.000000000000000000, 0.000000000000000000, 0.000000000000000000 ) ) ;
#280 = EDGE_CURVE ( 'NONE', #695, #703, #811, .T. ) ;
#281 = AXIS2_PLACEMENT_3D ( 'NONE', #72, #93, #155 ) ;
#282 = AXIS2_PLACEMENT_3D ( 'NONE', #731, #903, #710 ) ;
#283 = UNCERTAINTY_MEASURE_WITH_UNIT (LENGTH_MEASURE( 1.000000000000000082E-05 ), #866, 'distance_accuracy_value', 'NONE');
#284 = DIRECTION ( 'NONE',  ( 0.000000000000000000, 1.000000000000000000, -0.000000000000000000 ) ) ;
#285 = DIRECTION ( 'NONE',  ( -1.000000000000000000, 0.000000000000000000, 0.000000000000000000 ) ) ;
#286 = CARTESIAN_POINT ( 'NONE',  ( 6.500000000000001776, 0.000000000000000000, -6.499999999999999112 ) ) ;
#287 = ADVANCED_FACE ( 'NONE', ( #127 ), #464, .T. ) ;
#288 = EDGE_CURVE ( 'NONE', #10, #991, #551, .T. ) ;
#289 = AXIS2_PLACEMENT_3D ( 'NONE', #822, #39, #442 ) ;
#290 = DIRECTION ( 'NONE',  ( 0.000000000000000000, 0.000000000000000000, 1.000000000000000000 ) ) ;
#291 = PRESENTATION_LAYER_ASSIGNMENT (  '', '', ( #122 ) ) ;
#292 = PLANE ( 'NONE',  #199 ) ;
#293 = DIRECTION ( 'NONE',  ( 0.000000000000000000, 0.000000000000000000, -1.000000000000000000 ) ) ;
#294 = DIRECTION ( 'NONE',  ( 0.000000000000000000, 6.938893903907221278E-15, 1.000000000000000000 ) ) ;
#295 = DIRECTION ( 'NONE',  ( 0.000000000000000000, 1.000000000000000000, 0.000000000000000000 ) ) ;
#296 = AXIS2_PLACEMENT_3D ( 'NONE', #541, #971, #674 ) ;
#297 = DIRECTION ( 'NONE',  ( -0.000000000000000000, -1.000000000000000000, -0.000000000000000000 ) ) ;
#298 = DIRECTION ( 'NONE',  ( 0.000000000000000000, 0.000000000000000000, 1.000000000000000000 ) ) ;
#299 = EDGE_LOOP ( 'NONE', ( #301, #341, #726, #691 ) ) ;
#300 = SURFACE_SIDE_STYLE ('',( #503 ) ) ;
#301 = ORIENTED_EDGE ( 'NONE', *, *, #358, .F. ) ;
#302 = DIRECTION ( 'NONE',  ( 0.000000000000000000, 0.000000000000000000, 1.000000000000000000 ) ) ;
#303 = ORIENTED_EDGE ( 'NONE', *, *, #597, .T. ) ;
#304 = VERTEX_POINT ( 'NONE', #716 ) ;
#305 = CARTESIAN_POINT ( 'NONE',  ( 1.080000000000000293, -2.350000000000000089, 0.6799999999999999378 ) ) ;
#306 = AXIS2_PLACEMENT_3D ( 'NONE', #992, #172, #1000 ) ;
#307 = VERTEX_POINT ( 'NONE', #627 ) ;
#308 = ORIENTED_EDGE ( 'NONE', *, *, #288, .T. ) ;
#309 = DIRECTION ( 'NONE',  ( 6.938893903907221278E-15, 6.938893903907221278E-15, 1.000000000000000000 ) ) ;
#310 = ADVANCED_FACE ( 'NONE', ( #554 ), #885, .T. ) ;
#311 = CARTESIAN_POINT ( 'NONE',  ( 1.080000000000000293, -5.831370849898474873, 0.6800000000000000488 ) ) ;
#312 = ORIENTED_EDGE ( 'NONE', *, *, #46, .T. ) ;
#313 = EDGE_LOOP ( 'NONE', ( #76, #779, #788, #664 ) ) ;
#314 = EDGE_CURVE ( 'NONE', #304, #60, #226, .T. ) ;
#315 = DIRECTION ( 'NONE',  ( 0.000000000000000000, 1.000000000000000000, 0.000000000000000000 ) ) ;
#316 = ORIENTED_EDGE ( 'NONE', *, *, #270, .F. ) ;
#317 = VERTEX_POINT ( 'NONE', #951 ) ;
#318 = DIRECTION ( 'NONE',  ( -0.000000000000000000, -1.000000000000000000, -0.000000000000000000 ) ) ;
#319 = AXIS2_PLACEMENT_3D ( 'NONE', #429, #516, #727 ) ;
#320 = ORIENTED_EDGE ( 'NONE', *, *, #525, .T. ) ;
#321 = CARTESIAN_POINT ( 'NONE',  ( 1.080000000000000293, 4.200000000000000178, 1.080000000000000071 ) ) ;
#322 = ORIENTED_EDGE ( 'NONE', *, *, #573, .T. ) ;
#323 = ORIENTED_EDGE ( 'NONE', *, *, #154, .T. ) ;
#324 = ORIENTED_EDGE ( 'NONE', *, *, #732, .T. ) ;
#325 = CARTESIAN_POINT ( 'NONE',  ( 1.080000000000000293, 4.900000000000000355, 2.120772485184049927 ) ) ;
#326 = ORIENTED_EDGE ( 'NONE', *, *, #681, .F. ) ;
#327 = EDGE_CURVE ( 'NONE', #349, #19, #244, .T. ) ;
#328 = ORIENTED_EDGE ( 'NONE', *, *, #928, .F. ) ;
#329 = ORIENTED_EDGE ( 'NONE', *, *, #210, .F. ) ;
#330 = AXIS2_PLACEMENT_3D ( 'NONE', #935, #759, #448 ) ;
#331 = ORIENTED_EDGE ( 'NONE', *, *, #808, .F. ) ;
#332 = AXIS2_PLACEMENT_3D ( 'NONE', #131, #116, #946 ) ;
#333 = CARTESIAN_POINT ( 'NONE',  ( 6.500000000000001776, 4.200000000000000178, -6.499999999999999112 ) ) ;
#334 = ORIENTED_EDGE ( 'NONE', *, *, #358, .T. ) ;
#335 = ORIENTED_EDGE ( 'NONE', *, *, #210, .T. ) ;
#336 = DIRECTION ( 'NONE',  ( 0.000000000000000000, -0.000000000000000000, 1.000000000000000000 ) ) ;
#337 = ORIENTED_EDGE ( 'NONE', *, *, #808, .T. ) ;
#338 = VERTEX_POINT ( 'NONE', #956 ) ;
#339 = DIRECTION ( 'NONE',  ( 0.000000000000000000, 0.000000000000000000, -1.000000000000000000 ) ) ;
#340 = AXIS2_PLACEMENT_3D ( 'NONE', #651, #659, #754 ) ;
#341 = ORIENTED_EDGE ( 'NONE', *, *, #982, .T. ) ;
#342 = CARTESIAN_POINT ( 'NONE',  ( 7.500000000000001776, 4.200000000000000178, -6.499999999999992006 ) ) ;
#343 = ORIENTED_EDGE ( 'NONE', *, *, #418, .F. ) ;
#344 = EDGE_LOOP ( 'NONE', ( #389, #380, #714, #103 ) ) ;
#345 = ORIENTED_EDGE ( 'NONE', *, *, #623, .F. ) ;
#346 = ORIENTED_EDGE ( 'NONE', *, *, #882, .F. ) ;
#347 = ADVANCED_FACE ( 'NONE', ( #894 ), #796, .F. ) ;
#348 = DIRECTION ( 'NONE',  ( 0.000000000000000000, 1.000000000000000000, 0.000000000000000000 ) ) ;
#349 = VERTEX_POINT ( 'NONE', #20 ) ;
#350 = DIRECTION ( 'NONE',  ( 0.000000000000000000, 0.000000000000000000, -1.000000000000000000 ) ) ;
#351 = ORIENTED_EDGE ( 'NONE', *, *, #906, .T. ) ;
#352 = DIRECTION ( 'NONE',  ( 0.000000000000000000, 0.000000000000000000, -1.000000000000000000 ) ) ;
#353 = ORIENTED_EDGE ( 'NONE', *, *, #471, .T. ) ;
#354 = AXIS2_PLACEMENT_3D ( 'NONE', #570, #13, #108 ) ;
#355 = EDGE_LOOP ( 'NONE', ( #744, #326, #95, #669 ) ) ;
#356 = DIRECTION ( 'NONE',  ( 1.000000000000000000, 0.000000000000000000, 0.000000000000000000 ) ) ;
#357 = ORIENTED_EDGE ( 'NONE', *, *, #934, .T. ) ;
#358 = EDGE_CURVE ( 'NONE', #700, #581, #148, .T. ) ;
#359 = ORIENTED_EDGE ( 'NONE', *, *, #635, .F. ) ;
#360 = DIRECTION ( 'NONE',  ( 0.000000000000000000, 0.000000000000000000, -1.000000000000000000 ) ) ;
#361 = VERTEX_POINT ( 'NONE', #620 ) ;
#362 = ORIENTED_EDGE ( 'NONE', *, *, #270, .T. ) ;
#363 = ADVANCED_FACE ( 'NONE', ( #828 ), #208, .F. ) ;
#364 = CARTESIAN_POINT ( 'NONE',  ( -7.500000000000001776, 0.2500000000000002220, 6.499999999999992006 ) ) ;
#365 = ORIENTED_EDGE ( 'NONE', *, *, #635, .T. ) ;
#366 = DIRECTION ( 'NONE',  ( 0.000000000000000000, -1.000000000000000000, 0.000000000000000000 ) ) ;
#367 = VERTEX_POINT ( 'NONE', #743 ) ;
#368 = CARTESIAN_POINT ( 'NONE',  ( 1.080000000000000071, 4.200000000000000178, -0.7949999999999999289 ) ) ;
#369 = EDGE_CURVE ( 'NONE', #60, #581, #160, .T. ) ;
#370 = AXIS2_PLACEMENT_3D ( 'NONE', #939, #180, #264 ) ;
#371 = ORIENTED_EDGE ( 'NONE', *, *, #166, .F. ) ;
#372 = VERTEX_POINT ( 'NONE', #962 ) ;
#373 = DIRECTION ( 'NONE',  ( -0.000000000000000000, 0.000000000000000000, 1.000000000000000000 ) ) ;
#374 = ORIENTED_EDGE ( 'NONE', *, *, #813, .F. ) ;
#375 = DIRECTION ( 'NONE',  ( 1.000000000000000000, 0.000000000000000000, 6.938893903907222067E-15 ) ) ;
#376 = VERTEX_POINT ( 'NONE', #830 ) ;
#377 =( NAMED_UNIT ( * ) SI_UNIT ( $, .STERADIAN. ) SOLID_ANGLE_UNIT ( ) );
#378 = EDGE_LOOP ( 'NONE', ( #645, #353, #419, #702 ) ) ;
#379 = SURFACE_STYLE_USAGE ( .BOTH. , #245 ) ;
#380 = ORIENTED_EDGE ( 'NONE', *, *, #893, .F. ) ;
#381 = ORIENTED_EDGE ( 'NONE', *, *, #29, .F. ) ;
#382 = EDGE_LOOP ( 'NONE', ( #97, #709 ) ) ;
#383 = CARTESIAN_POINT ( 'NONE',  ( -6.499999999999994671, 0.2500000000000002220, -7.499999999999999112 ) ) ;
#384 = ORIENTED_EDGE ( 'NONE', *, *, #29, .T. ) ;
#385 = CARTESIAN_POINT ( 'NONE',  ( 1.080000000000000293, -5.831370849898474873, 1.479999999999999982 ) ) ;
#386 = VERTEX_POINT ( 'NONE', #47 ) ;
#387 = CARTESIAN_POINT ( 'NONE',  ( 6.500000000000001776, 4.200000000000000178, -6.499999999999999112 ) ) ;
#388 = EDGE_CURVE ( 'NONE', #991, #16, #129, .T. ) ;
#389 = ORIENTED_EDGE ( 'NONE', *, *, #963, .T. ) ;
#390 = ORIENTED_EDGE ( 'NONE', *, *, #732, .F. ) ;
#391 = CARTESIAN_POINT ( 'NONE',  ( -6.499999999999994671, 3.950000000000000178, 7.249999999999998224 ) ) ;
#392 = EDGE_LOOP ( 'NONE', ( #359, #688, #1003, #397 ) ) ;
#393 = DIRECTION ( 'NONE',  ( 0.000000000000000000, 0.000000000000000000, -1.000000000000000000 ) ) ;
#394 = EDGE_LOOP ( 'NONE', ( #768, #630, #993, #381 ) ) ;
#395 =( NAMED_UNIT ( * ) PLANE_ANGLE_UNIT ( ) SI_UNIT ( $, .RADIAN. ) );
#396 = VERTEX_POINT ( 'NONE', #877 ) ;
#397 = ORIENTED_EDGE ( 'NONE', *, *, #101, .T. ) ;
#398 = CARTESIAN_POINT ( 'NONE',  ( 7.250000000000000888, 3.950000000000000178, -6.499999999999993783 ) ) ;
#399 = DIRECTION ( 'NONE',  ( 0.000000000000000000, 0.000000000000000000, -1.000000000000000000 ) ) ;
#400 = AXIS2_PLACEMENT_3D ( 'NONE', #706, #8, #803 ) ;
#401 = ORIENTED_EDGE ( 'NONE', *, *, #934, .F. ) ;
#402 = ORIENTED_EDGE ( 'NONE', *, *, #59, .F. ) ;
#403 = DIRECTION ( 'NONE',  ( -0.000000000000000000, -1.000000000000000000, -0.000000000000000000 ) ) ;
#404 = DIRECTION ( 'NONE',  ( 0.000000000000000000, 0.000000000000000000, -1.000000000000000000 ) ) ;
#405 = EDGE_LOOP ( 'NONE', ( #752, #456, #660, #999 ) ) ;
#406 = SHAPE_DEFINITION_REPRESENTATION ( #909, #22 ) ;
#407 = CLOSED_SHELL ( 'NONE', ( #347, #804, #947, #109, #363, #753, #649, #591, #761, #237, #826, #287, #269, #964, #537, #666, #873, #310, #527, #65, #624, #268, #36, #212, #132, #735, #494, #454 ) ) ;
#408 = DIRECTION ( 'NONE',  ( 1.000000000000000000, 0.000000000000000000, -0.000000000000000000 ) ) ;
#409 = ADVANCED_FACE ( 'NONE', ( #465 ), #816, .T. ) ;
#410 = VERTEX_POINT ( 'NONE', #530 ) ;
#411 = CARTESIAN_POINT ( 'NONE',  ( -6.499999999999994671, 0.2500000000000002220, -7.499999999999999112 ) ) ;
#412 = DIRECTION ( 'NONE',  ( 0.000000000000000000, 0.000000000000000000, 1.000000000000000000 ) ) ;
#413 = EDGE_CURVE ( 'NONE', #396, #338, #142, .T. ) ;
#414 = EDGE_LOOP ( 'NONE', ( #402, #643, #334, #750 ) ) ;
#415 = PRODUCT_DEFINITION_CONTEXT ( 'detailed design', #612, 'design' ) ;
#416 = DIRECTION ( 'NONE',  ( 0.000000000000000000, 0.000000000000000000, -1.000000000000000000 ) ) ;
#417 = ORIENTED_EDGE ( 'NONE', *, *, #327, .F. ) ;
#418 = EDGE_CURVE ( 'NONE', #730, #304, #821, .T. ) ;
#419 = ORIENTED_EDGE ( 'NONE', *, *, #994, .T. ) ;
#420 = DIRECTION ( 'NONE',  ( 0.000000000000000000, 0.000000000000000000, -1.000000000000000000 ) ) ;
#421 = MANIFOLD_SOLID_BREP ( 'Cut-Extrude1', #407 ) ;
#422 = ORIENTED_EDGE ( 'NONE', *, *, #614, .T. ) ;
#423 = FACE_OUTER_BOUND ( 'NONE', #394, .T. ) ;
#424 = DIRECTION ( 'NONE',  ( -0.000000000000000000, -1.000000000000000000, -0.000000000000000000 ) ) ;
#425 = CIRCLE ( 'NONE', #972, 0.3999999999999999667 ) ;
#426 = ORIENTED_EDGE ( 'NONE', *, *, #413, .T. ) ;
#427 = DIRECTION ( 'NONE',  ( -0.000000000000000000, -1.000000000000000000, -0.000000000000000000 ) ) ;
#428 = CYLINDRICAL_SURFACE ( 'NONE', #436, 1.000000000000000000 ) ;
#429 = CARTESIAN_POINT ( 'NONE',  ( 1.080000000000000293, 0.000000000000000000, 1.080000000000000071 ) ) ;
#430 = EDGE_CURVE ( 'NONE', #372, #410, #137, .T. ) ;
#431 = AXIS2_PLACEMENT_3D ( 'NONE', #146, #749, #829 ) ;
#432 = FACE_OUTER_BOUND ( 'NONE', #682, .T. ) ;
#433 = DIRECTION ( 'NONE',  ( 1.000000000000000000, -0.000000000000000000, 6.938893903907221278E-15 ) ) ;
#434 = EDGE_LOOP ( 'NONE', ( #628, #625, #335, #37, #996, #707, #96, #979 ) ) ;
#435 = ORIENTED_EDGE ( 'NONE', *, *, #471, .F. ) ;
#436 = AXIS2_PLACEMENT_3D ( 'NONE', #453, #189, #99 ) ;
#437 = ORIENTED_EDGE ( 'NONE', *, *, #693, .T. ) ;
#438 = DIRECTION ( 'NONE',  ( -0.000000000000000000, -1.000000000000000000, -0.000000000000000000 ) ) ;
#439 = ORIENTED_EDGE ( 'NONE', *, *, #862, .F. ) ;
#440 = ORIENTED_EDGE ( 'NONE', *, *, #583, .T. ) ;
#441 = EDGE_LOOP ( 'NONE', ( #733, #328, #401, #661 ) ) ;
#442 = DIRECTION ( 'NONE',  ( 0.000000000000000000, 0.000000000000000000, 1.000000000000000000 ) ) ;
#443 = CIRCLE ( 'NONE', #157, 0.2500000000000002220 ) ;
#444 = DIRECTION ( 'NONE',  ( 1.000000000000000000, -0.000000000000000000, 6.938893903907221278E-15 ) ) ;
#445 = ORIENTED_EDGE ( 'NONE', *, *, #450, .F. ) ;
#446 = DIRECTION ( 'NONE',  ( 1.000000000000000000, -0.000000000000000000, -0.000000000000000000 ) ) ;
#447 = AXIS2_PLACEMENT_3D ( 'NONE', #88, #478, #175 ) ;
#448 = DIRECTION ( 'NONE',  ( 0.000000000000000000, 0.000000000000000000, 1.000000000000000000 ) ) ;
#449 = LINE ( 'NONE', #342, #125 ) ;
#450 = EDGE_CURVE ( 'NONE', #730, #40, #797, .T. ) ;
#451 = VERTEX_POINT ( 'NONE', #106 ) ;
#452 = CIRCLE ( 'NONE', #192, 1.000000000000000000 ) ;
#453 = CARTESIAN_POINT ( 'NONE',  ( 6.500000000000001776, 4.200000000000000178, 6.499999999999999112 ) ) ;
#454 = ADVANCED_FACE ( 'NONE', ( #147 ), #477, .F. ) ;
#455 =( LENGTH_UNIT ( ) NAMED_UNIT ( * ) SI_UNIT ( .MILLI., .METRE. ) );
#456 = ORIENTED_EDGE ( 'NONE', *, *, #982, .F. ) ;
#457 = TOROIDAL_SURFACE ( 'NONE', #488, 0.7500000000000000000, 0.2500000000000000000 ) ;
#458 = ORIENTED_EDGE ( 'NONE', *, *, #998, .T. ) ;
#459 = CARTESIAN_POINT ( 'NONE',  ( -6.499999999999994671, 0.2500000000000002220, 7.249999999999998224 ) ) ;
#460 = ORIENTED_EDGE ( 'NONE', *, *, #1004, .F. ) ;
#461 = AXIS2_PLACEMENT_3D ( 'NONE', #102, #870, #408 ) ;
#462 = DIRECTION ( 'NONE',  ( 0.000000000000000000, -0.000000000000000000, -1.000000000000000000 ) ) ;
#463 = DIRECTION ( 'NONE',  ( -1.000000000000000000, 0.000000000000000000, 0.000000000000000000 ) ) ;
#464 = TOROIDAL_SURFACE ( 'NONE', #686, 0.7500000000000000000, 0.2500000000000000000 ) ;
#465 = FACE_OUTER_BOUND ( 'NONE', #313, .T. ) ;
#466 = DIRECTION ( 'NONE',  ( -0.000000000000000000, -1.000000000000000000, -0.000000000000000000 ) ) ;
#467 = DIRECTION ( 'NONE',  ( 0.000000000000000000, 0.000000000000000000, 1.000000000000000000 ) ) ;
#468 = CARTESIAN_POINT ( 'NONE',  ( 6.499999999999994671, 0.000000000000000000, -7.249999999999998224 ) ) ;
#469 = DIRECTION ( 'NONE',  ( 0.000000000000000000, 1.000000000000000000, -0.000000000000000000 ) ) ;
#470 = LINE ( 'NONE', #140, #827 ) ;
#471 = EDGE_CURVE ( 'NONE', #695, #78, #473, .T. ) ;
#472 = AXIS2_PLACEMENT_3D ( 'NONE', #914, #973, #235 ) ;
#473 = LINE ( 'NONE', #865, #823 ) ;
#474 = AXIS2_PLACEMENT_3D ( 'NONE', #868, #298, #571 ) ;
#475 = FACE_OUTER_BOUND ( 'NONE', #355, .T. ) ;
#476 = DIRECTION ( 'NONE',  ( -0.000000000000000000, -1.000000000000000000, 0.000000000000000000 ) ) ;
#477 = CYLINDRICAL_SURFACE ( 'NONE', #447, 0.3999999999999999667 ) ;
#478 = DIRECTION ( 'NONE',  ( -0.000000000000000000, 1.000000000000000000, -0.000000000000000000 ) ) ;
#479 = VECTOR ( 'NONE', #927, 1000.000000000000000 ) ;
#480 = DIRECTION ( 'NONE',  ( 2.659909329831104948E-14, 0.000000000000000000, -1.000000000000000000 ) ) ;
#481 = CYLINDRICAL_SURFACE ( 'NONE', #576, 0.2500000000000002220 ) ;
#482 = CIRCLE ( 'NONE', #922, 0.3999999999999999667 ) ;
#483 = EDGE_CURVE ( 'NONE', #658, #361, #498, .T. ) ;
#484 = DIRECTION ( 'NONE',  ( 1.000000000000000000, 0.000000000000000000, 0.000000000000000000 ) ) ;
#485 = COLOUR_RGB ( '',0.7921568627450980005, 0.8196078431372548767, 0.9333333333333333481 ) ;
#486 = CARTESIAN_POINT ( 'NONE',  ( -6.499999999999996447, 3.950000000000000178, -7.249999999999998224 ) ) ;
#487 = SURFACE_STYLE_USAGE ( .BOTH. , #616 ) ;
#488 = AXIS2_PLACEMENT_3D ( 'NONE', #825, #907, #965 ) ;
#489 = CARTESIAN_POINT ( 'NONE',  ( -6.499999999999996447, 0.2500000000000002220, 7.249999999999998224 ) ) ;
#490 = LINE ( 'NONE', #383, #141 ) ;
#491 = FACE_OUTER_BOUND ( 'NONE', #14, .T. ) ;
#492 = MANIFOLD_SOLID_BREP ( 'Boss-Extrude3', #780 ) ;
#493 = CYLINDRICAL_SURFACE ( 'NONE', #474, 0.2500000000000002220 ) ;
#494 = ADVANCED_FACE ( 'NONE', ( #150 ), #799, .T. ) ;
#495 = CYLINDRICAL_SURFACE ( 'NONE', #986, 1.000000000000000000 ) ;
#496 = DIRECTION ( 'NONE',  ( 0.000000000000000000, 1.000000000000000000, -0.000000000000000000 ) ) ;
#497 = DIRECTION ( 'NONE',  ( 0.000000000000000000, 0.000000000000000000, -1.000000000000000000 ) ) ;
#498 = LINE ( 'NONE', #260, #805 ) ;
#499 = EDGE_CURVE ( 'NONE', #715, #711, #136, .T. ) ;
#500 = CARTESIAN_POINT ( 'NONE',  ( 1.080000000000000293, 4.200000000000000178, 2.955000000000000071 ) ) ;
#501 = COLOUR_RGB ( '',0.5019607843137254832, 0.5019607843137254832, 0.5019607843137254832 ) ;
#502 = PRESENTATION_STYLE_ASSIGNMENT (( #379 ) ) ;
#503 = SURFACE_STYLE_FILL_AREA ( #920 ) ;
#504 = CARTESIAN_POINT ( 'NONE',  ( -6.500000000000001776, 3.950000000000000178, -6.499999999999999112 ) ) ;
#505 = CYLINDRICAL_SURFACE ( 'NONE', #875, 1.000000000000000000 ) ;
#506 = DIRECTION ( 'NONE',  ( 1.000000000000000000, 0.000000000000000000, 0.000000000000000000 ) ) ;
#507 = LINE ( 'NONE', #57, #522 ) ;
#508 = VECTOR ( 'NONE', #202, 1000.000000000000000 ) ;
#509 = CARTESIAN_POINT ( 'NONE',  ( -6.499999999999994671, 3.950000000000000178, -7.499999999999999112 ) ) ;
#510 = LINE ( 'NONE', #204, #861 ) ;
#511 = AXIS2_PLACEMENT_3D ( 'NONE', #524, #279, #350 ) ;
#512 = VECTOR ( 'NONE', #15, 1000.000000000000000 ) ;
#513 = CARTESIAN_POINT ( 'NONE',  ( 6.499999999999994671, 4.200000000000000178, -7.499999999999999112 ) ) ;
#514 = CYLINDRICAL_SURFACE ( 'NONE', #543, 0.2500000000000002220 ) ;
#515 = AXIS2_PLACEMENT_3D ( 'NONE', #164, #297, #256 ) ;
#516 = DIRECTION ( 'NONE',  ( 0.000000000000000000, 1.000000000000000000, 0.000000000000000000 ) ) ;
#517 = FACE_OUTER_BOUND ( 'NONE', #677, .T. ) ;
#518 = PRESENTATION_STYLE_ASSIGNMENT (( #64 ) ) ;
#519 = CARTESIAN_POINT ( 'NONE',  ( 7.500000000000001776, 4.200000000000000178, 6.499999999999992006 ) ) ;
#520 = UNCERTAINTY_MEASURE_WITH_UNIT (LENGTH_MEASURE( 1.000000000000000082E-05 ), #945, 'distance_accuracy_value', 'NONE');
#521 = FACE_OUTER_BOUND ( 'NONE', #887, .T. ) ;
#522 = VECTOR ( 'NONE', #143, 1000.000000000000000 ) ;
#523 = EDGE_CURVE ( 'NONE', #711, #317, #820, .T. ) ;
#524 = CARTESIAN_POINT ( 'NONE',  ( -6.500000000000001776, 3.950000000000000178, 7.249999999999998224 ) ) ;
#525 = EDGE_CURVE ( 'NONE', #307, #637, #470, .T. ) ;
#526 = DIRECTION ( 'NONE',  ( 0.000000000000000000, 0.000000000000000000, 1.000000000000000000 ) ) ;
#527 = ADVANCED_FACE ( 'NONE', ( #802 ), #798, .T. ) ;
#528 = AXIS2_PLACEMENT_3D ( 'NONE', #240, #294, #704 ) ;
#529 = DIRECTION ( 'NONE',  ( 0.000000000000000000, -0.000000000000000000, 1.000000000000000000 ) ) ;
#530 = CARTESIAN_POINT ( 'NONE',  ( -6.499999999999994671, 4.200000000000000178, 7.249999999999998224 ) ) ;
#531 = EDGE_CURVE ( 'NONE', #24, #62, #134, .T. ) ;
#532 = CARTESIAN_POINT ( 'NONE',  ( -6.500000000000001776, 4.200000000000000178, 7.249999999999998224 ) ) ;
#533 = LINE ( 'NONE', #385, #867 ) ;
#534 =( NAMED_UNIT ( * ) PLANE_ANGLE_UNIT ( ) SI_UNIT ( $, .RADIAN. ) );
#535 = VECTOR ( 'NONE', #446, 1000.000000000000000 ) ;
#536 = AXIS2_PLACEMENT_3D ( 'NONE', #224, #801, #416 ) ;
#537 = ADVANCED_FACE ( 'NONE', ( #475 ), #151, .T. ) ;
#538 = DIRECTION ( 'NONE',  ( 1.000000000000000000, 0.000000000000000000, 6.938893903907222067E-15 ) ) ;
#539 = VECTOR ( 'NONE', #919, 1000.000000000000000 ) ;
#540 = CARTESIAN_POINT ( 'NONE',  ( -6.500000000000001776, 0.000000000000000000, -6.499999999999999112 ) ) ;
#541 = CARTESIAN_POINT ( 'NONE',  ( -6.500000000000001776, 3.950000000000000178, -6.499999999999999112 ) ) ;
#542 = FACE_OUTER_BOUND ( 'NONE', #48, .T. ) ;
#543 = AXIS2_PLACEMENT_3D ( 'NONE', #568, #613, #506 ) ;
#544 = VECTOR ( 'NONE', #420, 1000.000000000000000 ) ;
#545 = DIRECTION ( 'NONE',  ( 0.000000000000000000, -0.000000000000000000, -1.000000000000000000 ) ) ;
#546 = FACE_OUTER_BOUND ( 'NONE', #12, .T. ) ;
#547 = DIRECTION ( 'NONE',  ( -6.938893903907221278E-15, 0.000000000000000000, 1.000000000000000000 ) ) ;
#548 = VECTOR ( 'NONE', #607, 1000.000000000000000 ) ;
#549 = LINE ( 'NONE', #513, #213 ) ;
#550 = CARTESIAN_POINT ( 'NONE',  ( 6.499999999999994671, 0.2500000000000000000, -7.249999999999998224 ) ) ;
#551 = CIRCLE ( 'NONE', #758, 0.2500000000000002220 ) ;
#552 = CIRCLE ( 'NONE', #130, 0.2500000000000002220 ) ;
#553 = CYLINDRICAL_SURFACE ( 'NONE', #370, 0.2500000000000002220 ) ;
#554 = FACE_OUTER_BOUND ( 'NONE', #728, .T. ) ;
#555 = CIRCLE ( 'NONE', #274, 0.7499999999999997780 ) ;
#556 = FACE_BOUND ( 'NONE', #243, .T. ) ;
#557 = PRESENTATION_STYLE_ASSIGNMENT (( #487 ) ) ;
#558 = CARTESIAN_POINT ( 'NONE',  ( 1.080000000000000293, -2.350000000000000089, 1.080000000000000071 ) ) ;
#559 = VERTEX_POINT ( 'NONE', #690 ) ;
#560 = DIRECTION ( 'NONE',  ( -0.000000000000000000, 1.000000000000000000, -0.000000000000000000 ) ) ;
#561 = EDGE_CURVE ( 'NONE', #631, #317, #806, .T. ) ;
#562 = LINE ( 'NONE', #856, #878 ) ;
#563 = CIRCLE ( 'NONE', #588, 0.3999999999999999667 ) ;
#564 = FILL_AREA_STYLE ('',( #90 ) ) ;
#565 = CIRCLE ( 'NONE', #67, 0.3999999999999999667 ) ;
#566 = AXIS2_PLACEMENT_3D ( 'NONE', #86, #978, #751 ) ;
#567 = FACE_OUTER_BOUND ( 'NONE', #83, .T. ) ;
#568 = CARTESIAN_POINT ( 'NONE',  ( 7.250000000000000888, 0.2500000000000002220, 6.499999999999992006 ) ) ;
#569 = VECTOR ( 'NONE', #158, 1000.000000000000000 ) ;
#570 = CARTESIAN_POINT ( 'NONE',  ( 0.000000000000000000, 0.000000000000000000, 0.000000000000000000 ) ) ;
#571 = DIRECTION ( 'NONE',  ( 1.000000000000000000, 0.000000000000000000, 0.000000000000000000 ) ) ;
#572 = VECTOR ( 'NONE', #27, 1000.000000000000000 ) ;
#573 = EDGE_CURVE ( 'NONE', #40, #24, #490, .T. ) ;
#574 = CARTESIAN_POINT ( 'NONE',  ( 6.499999999999994671, 0.2500000000000002220, 7.499999999999999112 ) ) ;
#575 = CIRCLE ( 'NONE', #622, 0.7499999999999997780 ) ;
#576 = AXIS2_PLACEMENT_3D ( 'NONE', #459, #285, #467 ) ;
#577 = DIRECTION ( 'NONE',  ( -0.000000000000000000, -0.000000000000000000, -1.000000000000000000 ) ) ;
#578 = LINE ( 'NONE', #468, #232 ) ;
#579 = LINE ( 'NONE', #641, #572 ) ;
#580 = CARTESIAN_POINT ( 'NONE',  ( -7.250000000000000888, 0.2500000000000002220, 6.499999999999992006 ) ) ;
#581 = VERTEX_POINT ( 'NONE', #231 ) ;
#582 = DIRECTION ( 'NONE',  ( -0.000000000000000000, -1.000000000000000000, 0.000000000000000000 ) ) ;
#583 = EDGE_CURVE ( 'NONE', #451, #689, #482, .T. ) ;
#584 = DIRECTION ( 'NONE',  ( 0.000000000000000000, 1.000000000000000000, -0.000000000000000000 ) ) ;
#585 = FACE_OUTER_BOUND ( 'NONE', #717, .T. ) ;
#586 = AXIS2_PLACEMENT_3D ( 'NONE', #594, #975, #529 ) ;
#587 = CARTESIAN_POINT ( 'NONE',  ( -7.500000000000001776, 4.200000000000000178, 6.499999999999992006 ) ) ;
#588 = AXIS2_PLACEMENT_3D ( 'NONE', #764, #852, #902 ) ;
#589 = EDGE_CURVE ( 'NONE', #19, #10, #144, .T. ) ;
#590 = PLANE ( 'NONE',  #950 ) ;
#591 = ADVANCED_FACE ( 'NONE', ( #815 ), #495, .T. ) ;
#592 = CARTESIAN_POINT ( 'NONE',  ( 7.250000000000000888, 0.000000000000000000, 6.499999999999993783 ) ) ;
#593 = DIRECTION ( 'NONE',  ( -0.000000000000000000, 1.000000000000000000, -0.000000000000000000 ) ) ;
#594 = CARTESIAN_POINT ( 'NONE',  ( 1.080000000000000293, 4.900000000000000355, 1.080000000000000071 ) ) ;
#595 = EDGE_CURVE ( 'NONE', #703, #581, #159, .T. ) ;
#596 = CARTESIAN_POINT ( 'NONE',  ( 6.500000000000001776, 0.000000000000000000, 6.499999999999999112 ) ) ;
#597 = EDGE_CURVE ( 'NONE', #915, #40, #549, .T. ) ;
#598 = DIRECTION ( 'NONE',  ( -0.000000000000000000, 1.000000000000000000, -0.000000000000000000 ) ) ;
#599 = CARTESIAN_POINT ( 'NONE',  ( 7.250000000000000888, 0.2500000000000000000, -6.499999999999993783 ) ) ;
#600 = CARTESIAN_POINT ( 'NONE',  ( -6.500000000000001776, 4.200000000000000178, 6.499999999999999112 ) ) ;
#601 = EDGE_CURVE ( 'NONE', #777, #700, #510, .T. ) ;
#602 = DIRECTION ( 'NONE',  ( 1.000000000000000000, 6.938893903907221278E-15, -6.938893903907221278E-15 ) ) ;
#603 = AXIS2_PLACEMENT_3D ( 'NONE', #587, #725, #181 ) ;
#604 = DIRECTION ( 'NONE',  ( -0.000000000000000000, -1.000000000000000000, 0.000000000000000000 ) ) ;
#605 = DIRECTION ( 'NONE',  ( -0.000000000000000000, -1.000000000000000000, 0.000000000000000000 ) ) ;
#606 = CARTESIAN_POINT ( 'NONE',  ( -6.500000000000001776, 0.000000000000000000, 6.499999999999999112 ) ) ;
#607 = DIRECTION ( 'NONE',  ( 1.000000000000000000, 0.000000000000000000, 0.000000000000000000 ) ) ;
#608 = DIRECTION ( 'NONE',  ( 1.000000000000000000, -0.000000000000000000, -0.000000000000000000 ) ) ;
#609 = CARTESIAN_POINT ( 'NONE',  ( 6.500000000000001776, 0.2500000000000002220, 6.499999999999999112 ) ) ;
#610 = CARTESIAN_POINT ( 'NONE',  ( -6.500000000000001776, 4.200000000000000178, -6.499999999999999112 ) ) ;
#611 = AXIS2_PLACEMENT_3D ( 'NONE', #836, #227, #404 ) ;
#612 = APPLICATION_CONTEXT ( 'automotive_design' ) ;
#613 = DIRECTION ( 'NONE',  ( 0.000000000000000000, 0.000000000000000000, 1.000000000000000000 ) ) ;
#614 = EDGE_CURVE ( 'NONE', #637, #361, #833, .T. ) ;
#615 = ADVANCED_FACE ( 'NONE', ( #546 ), #170, .T. ) ;
#616 = SURFACE_SIDE_STYLE ('',( #901 ) ) ;
#617 = DIRECTION ( 'NONE',  ( 0.000000000000000000, 1.000000000000000000, 0.000000000000000000 ) ) ;
#618 = PRODUCT_DEFINITION_FORMATION_WITH_SPECIFIED_SOURCE ( 'ANY', '', #942, .NOT_KNOWN. ) ;
#619 = PLANE ( 'NONE',  #603 ) ;
#620 = CARTESIAN_POINT ( 'NONE',  ( 1.080000000000000293, 4.200000000000000178, 0.6799999999999999378 ) ) ;
#621 = EDGE_CURVE ( 'NONE', #451, #396, #533, .T. ) ;
#622 = AXIS2_PLACEMENT_3D ( 'NONE', #387, #496, #480 ) ;
#623 = EDGE_CURVE ( 'NONE', #16, #372, #872, .T. ) ;
#624 = ADVANCED_FACE ( 'NONE', ( #179 ), #174, .T. ) ;
#625 = ORIENTED_EDGE ( 'NONE', *, *, #893, .T. ) ;
#626 = AXIS2_PLACEMENT_3D ( 'NONE', #814, #899, #35 ) ;
#627 = CARTESIAN_POINT ( 'NONE',  ( 1.080000000000000293, 0.000000000000000000, 1.479999999999999982 ) ) ;
#628 = ORIENTED_EDGE ( 'NONE', *, *, #314, .T. ) ;
#629 = CARTESIAN_POINT ( 'NONE',  ( 7.250000000000000000, 4.200000000000000178, 6.499999999999993783 ) ) ;
#630 = ORIENTED_EDGE ( 'NONE', *, *, #832, .F. ) ;
#631 = VERTEX_POINT ( 'NONE', #500 ) ;
#632 = CARTESIAN_POINT ( 'NONE',  ( 7.250000000000000888, 3.950000000000000178, 6.499999999999992006 ) ) ;
#633 = ORIENTED_EDGE ( 'NONE', *, *, #589, .T. ) ;
#634 = EDGE_LOOP ( 'NONE', ( #655, #974, #365, #384 ) ) ;
#635 = EDGE_CURVE ( 'NONE', #349, #32, #214, .T. ) ;
#636 = DIRECTION ( 'NONE',  ( 0.000000000000000000, 0.000000000000000000, -1.000000000000000000 ) ) ;
#637 = VERTEX_POINT ( 'NONE', #698 ) ;
#638 = EDGE_LOOP ( 'NONE', ( #308, #346, #107, #646 ) ) ;
#639 = AXIS2_PLACEMENT_3D ( 'NONE', #883, #617, #772 ) ;
#640 = ORIENTED_EDGE ( 'NONE', *, *, #792, .F. ) ;
#641 = CARTESIAN_POINT ( 'NONE',  ( -6.500000000000001776, 4.200000000000000178, -7.249999999999999112 ) ) ;
#642 = DIRECTION ( 'NONE',  ( -1.000000000000000000, 0.000000000000000000, 0.000000000000000000 ) ) ;
#643 = ORIENTED_EDGE ( 'NONE', *, *, #601, .T. ) ;
#644 = CARTESIAN_POINT ( 'NONE',  ( -6.500000000000001776, 0.000000000000000000, 6.499999999999999112 ) ) ;
#645 = ORIENTED_EDGE ( 'NONE', *, *, #280, .F. ) ;
#646 = ORIENTED_EDGE ( 'NONE', *, *, #848, .F. ) ;
#647 = DIRECTION ( 'NONE',  ( -0.000000000000000000, -1.000000000000000000, 0.000000000000000000 ) ) ;
#648 = ORIENTED_EDGE ( 'NONE', *, *, #738, .F. ) ;
#649 = ADVANCED_FACE ( 'NONE', ( #542 ), #126, .F. ) ;
#650 = ORIENTED_EDGE ( 'NONE', *, *, #499, .T. ) ;
#651 = CARTESIAN_POINT ( 'NONE',  ( -7.250000000000000888, 3.950000000000000178, 6.499999999999993783 ) ) ;
#652 = ORIENTED_EDGE ( 'NONE', *, *, #601, .F. ) ;
#653 = ORIENTED_EDGE ( 'NONE', *, *, #813, .T. ) ;
#654 = DIRECTION ( 'NONE',  ( 0.000000000000000000, 1.000000000000000000, 0.000000000000000000 ) ) ;
#655 = ORIENTED_EDGE ( 'NONE', *, *, #994, .F. ) ;
#656 = CARTESIAN_POINT ( 'NONE',  ( -6.499999999999994671, 3.950000000000000178, -7.499999999999999112 ) ) ;
#657 = DIRECTION ( 'NONE',  ( 0.000000000000000000, 0.000000000000000000, -1.000000000000000000 ) ) ;
#658 = VERTEX_POINT ( 'NONE', #1005 ) ;
#659 = DIRECTION ( 'NONE',  ( -6.938893903907221278E-15, 0.000000000000000000, 1.000000000000000000 ) ) ;
#660 = ORIENTED_EDGE ( 'NONE', *, *, #18, .T. ) ;
#661 = ORIENTED_EDGE ( 'NONE', *, *, #531, .F. ) ;
#662 = DIRECTION ( 'NONE',  ( 0.000000000000000000, -1.000000000000000000, 0.000000000000000000 ) ) ;
#663 = AXIS2_PLACEMENT_3D ( 'NONE', #910, #238, #966 ) ;
#664 = ORIENTED_EDGE ( 'NONE', *, *, #561, .T. ) ;
#665 = DIRECTION ( 'NONE',  ( 1.000000000000000000, 0.000000000000000000, 0.000000000000000000 ) ) ;
#666 = ADVANCED_FACE ( 'NONE', ( #163 ), #841, .T. ) ;
#667 = ORIENTED_EDGE ( 'NONE', *, *, #623, .T. ) ;
#668 = AXIS2_PLACEMENT_3D ( 'NONE', #845, #605, #360 ) ;
#669 = ORIENTED_EDGE ( 'NONE', *, *, #430, .F. ) ;
#670 = ORIENTED_EDGE ( 'NONE', *, *, #531, .T. ) ;
#671 = DIRECTION ( 'NONE',  ( -0.000000000000000000, -1.000000000000000000, -0.000000000000000000 ) ) ;
#672 = ORIENTED_EDGE ( 'NONE', *, *, #152, .T. ) ;
#673 = DIRECTION ( 'NONE',  ( 0.000000000000000000, 0.000000000000000000, -1.000000000000000000 ) ) ;
#674 = DIRECTION ( 'NONE',  ( 0.000000000000000000, 0.000000000000000000, -1.000000000000000000 ) ) ;
#675 = ORIENTED_EDGE ( 'NONE', *, *, #185, .T. ) ;
#676 = DIRECTION ( 'NONE',  ( 0.000000000000000000, -1.000000000000000000, 0.000000000000000000 ) ) ;
#677 = EDGE_LOOP ( 'NONE', ( #675, #692, #782, #708 ) ) ;
#678 = EDGE_CURVE ( 'NONE', #658, #307, #835, .T. ) ;
#679 = VERTEX_POINT ( 'NONE', #629 ) ;
#680 = DIRECTION ( 'NONE',  ( -6.938893903907221278E-15, 0.000000000000000000, 1.000000000000000000 ) ) ;
#681 = EDGE_CURVE ( 'NONE', #78, #349, #854, .T. ) ;
#682 = EDGE_LOOP ( 'NONE', ( #771, #329, #765, #89 ) ) ;
#683 = PLANE ( 'NONE',  #281 ) ;
#684 = DIRECTION ( 'NONE',  ( 0.000000000000000000, 0.000000000000000000, -1.000000000000000000 ) ) ;
#685 = EDGE_LOOP ( 'NONE', ( #351, #417, #640, #345 ) ) ;
#686 = AXIS2_PLACEMENT_3D ( 'NONE', #504, #582, #272 ) ;
#687 = ORIENTED_EDGE ( 'NONE', *, *, #275, .T. ) ;
#688 = ORIENTED_EDGE ( 'NONE', *, *, #327, .T. ) ;
#689 = VERTEX_POINT ( 'NONE', #305 ) ;
#690 = CARTESIAN_POINT ( 'NONE',  ( 6.499999999999996447, 0.000000000000000000, 7.249999999999998224 ) ) ;
#691 = ORIENTED_EDGE ( 'NONE', *, *, #595, .T. ) ;
#692 = ORIENTED_EDGE ( 'NONE', *, *, #874, .F. ) ;
#693 = EDGE_CURVE ( 'NONE', #410, #78, #869, .T. ) ;
#694 =( NAMED_UNIT ( * ) SI_UNIT ( $, .STERADIAN. ) SOLID_ANGLE_UNIT ( ) );
#695 = VERTEX_POINT ( 'NONE', #112 ) ;
#696 =( GEOMETRIC_REPRESENTATION_CONTEXT ( 3 ) GLOBAL_UNCERTAINTY_ASSIGNED_CONTEXT ( ( #976 ) ) GLOBAL_UNIT_ASSIGNED_CONTEXT ( ( #195, #534, #149 ) ) REPRESENTATION_CONTEXT ( 'NONE', 'WORKASPACE' ) );
#697 = ORIENTED_EDGE ( 'NONE', *, *, #931, .T. ) ;
#698 = CARTESIAN_POINT ( 'NONE',  ( 1.080000000000000293, 4.200000000000000178, 1.479999999999999982 ) ) ;
#699 = AXIS2_PLACEMENT_3D ( 'NONE', #838, #295, #858 ) ;
#700 = VERTEX_POINT ( 'NONE', #880 ) ;
#701 = DIRECTION ( 'NONE',  ( 0.000000000000000000, 1.000000000000000000, 0.000000000000000000 ) ) ;
#702 = ORIENTED_EDGE ( 'NONE', *, *, #246, .T. ) ;
#703 = VERTEX_POINT ( 'NONE', #574 ) ;
#704 = DIRECTION ( 'NONE',  ( 0.000000000000000000, -1.000000000000000000, 6.938893903907228378E-15 ) ) ;
#705 = ORIENTED_EDGE ( 'NONE', *, *, #388, .F. ) ;
#706 = CARTESIAN_POINT ( 'NONE',  ( -6.500000000000001776, 3.950000000000000178, 6.499999999999999112 ) ) ;
#707 = ORIENTED_EDGE ( 'NONE', *, *, #928, .T. ) ;
#708 = ORIENTED_EDGE ( 'NONE', *, *, #314, .F. ) ;
#709 = ORIENTED_EDGE ( 'NONE', *, *, #154, .F. ) ;
#710 = DIRECTION ( 'NONE',  ( 1.000000000000000000, 0.000000000000000000, -6.938893903907222067E-15 ) ) ;
#711 = VERTEX_POINT ( 'NONE', #948 ) ;
#712 = DIRECTION ( 'NONE',  ( 0.000000000000000000, 0.000000000000000000, -1.000000000000000000 ) ) ;
#713 = ORIENTED_EDGE ( 'NONE', *, *, #959, .F. ) ;
#714 = ORIENTED_EDGE ( 'NONE', *, *, #369, .T. ) ;
#715 = VERTEX_POINT ( 'NONE', #325 ) ;
#716 = CARTESIAN_POINT ( 'NONE',  ( 7.250000000000000888, 0.000000000000000000, -6.499999999999993783 ) ) ;
#717 = EDGE_LOOP ( 'NONE', ( #775, #371 ) ) ;
#718 = DIRECTION ( 'NONE',  ( 0.000000000000000000, 1.000000000000000000, 0.000000000000000000 ) ) ;
#719 = ORIENTED_EDGE ( 'NONE', *, *, #450, .T. ) ;
#720 = CARTESIAN_POINT ( 'NONE',  ( -6.499999999999994671, 0.000000000000000000, 7.249999999999998224 ) ) ;
#721 = EDGE_LOOP ( 'NONE', ( #74, #742 ) ) ;
#722 = VERTEX_POINT ( 'NONE', #271 ) ;
#723 = DIRECTION ( 'NONE',  ( -0.000000000000000000, -0.000000000000000000, 1.000000000000000000 ) ) ;
#724 = ORIENTED_EDGE ( 'NONE', *, *, #738, .T. ) ;
#725 = DIRECTION ( 'NONE',  ( 1.000000000000000000, -0.000000000000000000, 0.000000000000000000 ) ) ;
#726 = ORIENTED_EDGE ( 'NONE', *, *, #280, .T. ) ;
#727 = DIRECTION ( 'NONE',  ( 0.000000000000000000, 0.000000000000000000, 1.000000000000000000 ) ) ;
#728 = EDGE_LOOP ( 'NONE', ( #7, #390, #995, #652 ) ) ;
#729 = CARTESIAN_POINT ( 'NONE',  ( 6.499999999999994671, 3.950000000000000178, -7.499999999999999112 ) ) ;
#730 = VERTEX_POINT ( 'NONE', #957 ) ;
#731 = CARTESIAN_POINT ( 'NONE',  ( 7.250000000000000888, 0.2500000000000000000, 6.499999999999993783 ) ) ;
#732 = EDGE_CURVE ( 'NONE', #679, #386, #203, .T. ) ;
#733 = ORIENTED_EDGE ( 'NONE', *, *, #46, .F. ) ;
#734 = AXIS2_PLACEMENT_3D ( 'NONE', #970, #336, #961 ) ;
#735 = ADVANCED_FACE ( 'NONE', ( #517 ), #514, .T. ) ;
#736 = DIRECTION ( 'NONE',  ( 0.000000000000000000, 0.000000000000000000, -1.000000000000000000 ) ) ;
#737 = EDGE_LOOP ( 'NONE', ( #440, #724, #50, #114 ) ) ;
#738 = EDGE_CURVE ( 'NONE', #689, #338, #207, .T. ) ;
#739 = CARTESIAN_POINT ( 'NONE',  ( -7.500000000000001776, 0.2500000000000002220, -6.499999999999992006 ) ) ;
#740 = ORIENTED_EDGE ( 'NONE', *, *, #621, .T. ) ;
#741 = AXIS2_PLACEMENT_3D ( 'NONE', #925, #662, #545 ) ;
#742 = ORIENTED_EDGE ( 'NONE', *, *, #931, .F. ) ;
#743 = CARTESIAN_POINT ( 'NONE',  ( 6.499999999999994671, 4.200000000000000178, -7.249999999999998224 ) ) ;
#744 = ORIENTED_EDGE ( 'NONE', *, *, #792, .T. ) ;
#745 = CARTESIAN_POINT ( 'NONE',  ( -6.499999999999994671, 4.200000000000000178, -7.499999999999999112 ) ) ;
#746 = ORIENTED_EDGE ( 'NONE', *, *, #573, .F. ) ;
#747 = DIRECTION ( 'NONE',  ( 0.000000000000000000, -0.000000000000000000, 1.000000000000000000 ) ) ;
#748 = VERTEX_POINT ( 'NONE', #119 ) ;
#749 = DIRECTION ( 'NONE',  ( 0.000000000000000000, 1.000000000000000000, 0.000000000000000000 ) ) ;
#750 = ORIENTED_EDGE ( 'NONE', *, *, #874, .T. ) ;
#751 = DIRECTION ( 'NONE',  ( 0.000000000000000000, 0.000000000000000000, 1.000000000000000000 ) ) ;
#752 = ORIENTED_EDGE ( 'NONE', *, *, #139, .T. ) ;
#753 = ADVANCED_FACE ( 'NONE', ( #218 ), #505, .T. ) ;
#754 = DIRECTION ( 'NONE',  ( 1.000000000000000000, 0.000000000000000000, 6.938893903907222067E-15 ) ) ;
#755 = AXIS2_PLACEMENT_3D ( 'NONE', #781, #251, #352 ) ;
#756 = CARTESIAN_POINT ( 'NONE',  ( 1.080000000000000293, 4.200000000000000178, 1.080000000000000071 ) ) ;
#757 = FACE_OUTER_BOUND ( 'NONE', #299, .T. ) ;
#758 = AXIS2_PLACEMENT_3D ( 'NONE', #486, #433, #124 ) ;
#759 = DIRECTION ( 'NONE',  ( 0.000000000000000000, 1.000000000000000000, 0.000000000000000000 ) ) ;
#760 = EDGE_LOOP ( 'NONE', ( #981, #633, #337, #670 ) ) ;
#761 = ADVANCED_FACE ( 'NONE', ( #871 ), #619, .F. ) ;
#762 = PLANE ( 'NONE',  #173 ) ;
#763 = ORIENTED_EDGE ( 'NONE', *, *, #104, .F. ) ;
#764 = CARTESIAN_POINT ( 'NONE',  ( 1.080000000000000293, 4.200000000000000178, 1.080000000000000071 ) ) ;
#765 = ORIENTED_EDGE ( 'NONE', *, *, #963, .F. ) ;
#766 = EDGE_CURVE ( 'NONE', #715, #631, #507, .T. ) ;
#767 = DIRECTION ( 'NONE',  ( 0.000000000000000000, 0.000000000000000000, 1.000000000000000000 ) ) ;
#768 = ORIENTED_EDGE ( 'NONE', *, *, #261, .T. ) ;
#769 = PRODUCT_RELATED_PRODUCT_CATEGORY ( 'part', '', ( #942 ) ) ;
#770 = CARTESIAN_POINT ( 'NONE',  ( 7.500000000000001776, 3.950000000000000178, -6.499999999999992006 ) ) ;
#771 = ORIENTED_EDGE ( 'NONE', *, *, #117, .T. ) ;
#772 = DIRECTION ( 'NONE',  ( 0.000000000000000000, 0.000000000000000000, 1.000000000000000000 ) ) ;
#773 = ORIENTED_EDGE ( 'NONE', *, *, #766, .F. ) ;
#774 = CARTESIAN_POINT ( 'NONE',  ( 6.499999999999994671, 0.2500000000000002220, 7.249999999999998224 ) ) ;
#775 = ORIENTED_EDGE ( 'NONE', *, *, #561, .F. ) ;
#776 = DIRECTION ( 'NONE',  ( 0.000000000000000000, 0.000000000000000000, -1.000000000000000000 ) ) ;
#777 = VERTEX_POINT ( 'NONE', #770 ) ;
#778 = PRESENTATION_LAYER_ASSIGNMENT (  '', '', ( #980 ) ) ;
#779 = ORIENTED_EDGE ( 'NONE', *, *, #499, .F. ) ;
#780 = CLOSED_SHELL ( 'NONE', ( #615, #904, #924, #843, #409, #191, #221 ) ) ;
#781 = CARTESIAN_POINT ( 'NONE',  ( 6.500000000000001776, 0.2500000000000002220, 6.499999999999999112 ) ) ;
#782 = ORIENTED_EDGE ( 'NONE', *, *, #369, .F. ) ;
#783 = AXIS2_PLACEMENT_3D ( 'NONE', #990, #52, #77 ) ;
#784 = UNCERTAINTY_MEASURE_WITH_UNIT (LENGTH_MEASURE( 1.000000000000000082E-05 ), #455, 'distance_accuracy_value', 'NONE');
#785 = FILL_AREA_STYLE ('',( #949 ) ) ;
#786 = FACE_OUTER_BOUND ( 'NONE', #441, .T. ) ;
#787 = APPLICATION_PROTOCOL_DEFINITION ( 'draft international standard', 'automotive_design', 1998, #612 ) ;
#788 = ORIENTED_EDGE ( 'NONE', *, *, #766, .T. ) ;
#789 = LINE ( 'NONE', #364, #87 ) ;
#790 = ORIENTED_EDGE ( 'NONE', *, *, #430, .T. ) ;
#791 = VECTOR ( 'NONE', #424, 1000.000000000000000 ) ;
#792 = EDGE_CURVE ( 'NONE', #372, #349, #844, .T. ) ;
#793 = AXIS2_PLACEMENT_3D ( 'NONE', #774, #857, #926 ) ;
#794 = DIRECTION ( 'NONE',  ( -0.000000000000000000, -1.000000000000000000, 0.000000000000000000 ) ) ;
#795 = DIRECTION ( 'NONE',  ( -0.000000000000000000, -1.000000000000000000, 0.000000000000000000 ) ) ;
#796 = CYLINDRICAL_SURFACE ( 'NONE', #228, 0.3999999999999999667 ) ;
#797 = CIRCLE ( 'NONE', #850, 0.2500000000000002220 ) ;
#798 = TOROIDAL_SURFACE ( 'NONE', #668, 0.7500000000000000000, 0.2500000000000000000 ) ;
#799 = TOROIDAL_SURFACE ( 'NONE', #755, 0.7500000000000000000, 0.2500000000000000000 ) ;
#800 = CARTESIAN_POINT ( 'NONE',  ( 1.080000000000000293, 4.900000000000000355, 1.080000000000000071 ) ) ;
#801 = DIRECTION ( 'NONE',  ( 0.000000000000000000, 1.000000000000000000, -0.000000000000000000 ) ) ;
#802 = FACE_OUTER_BOUND ( 'NONE', #405, .T. ) ;
#803 = DIRECTION ( 'NONE',  ( 0.000000000000000000, 0.000000000000000000, -1.000000000000000000 ) ) ;
#804 = ADVANCED_FACE ( 'NONE', ( #176 ), #205, .T. ) ;
#805 = VECTOR ( 'NONE', #560, 1000.000000000000000 ) ;
#806 = CIRCLE ( 'NONE', #566, 1.875000000000000222 ) ;
#807 = CARTESIAN_POINT ( 'NONE',  ( 7.250000000000000000, 3.950000000000000178, 6.499999999999999112 ) ) ;
#808 = EDGE_CURVE ( 'NONE', #10, #24, #846, .T. ) ;
#809 = CARTESIAN_POINT ( 'NONE',  ( -7.250000000000000888, 4.200000000000000178, 6.499999999999999112 ) ) ;
#810 = DIRECTION ( 'NONE',  ( 0.000000000000000000, 1.000000000000000000, -0.000000000000000000 ) ) ;
#811 = LINE ( 'NONE', #135, #791 ) ;
#812 = CIRCLE ( 'NONE', #332, 0.2500000000000002220 ) ;
#813 = EDGE_CURVE ( 'NONE', #249, #40, #165, .T. ) ;
#814 = CARTESIAN_POINT ( 'NONE',  ( -6.499999999999996447, 0.2500000000000000000, -7.249999999999998224 ) ) ;
#815 = FACE_OUTER_BOUND ( 'NONE', #760, .T. ) ;
#816 = CONICAL_SURFACE ( 'NONE', #859, 1.875000000000000222, 0.8726646259971666542 ) ;
#817 = CARTESIAN_POINT ( 'NONE',  ( -6.500000000000001776, -2.350000000000000089, 6.499999999999999112 ) ) ;
#818 = AXIS2_PLACEMENT_3D ( 'NONE', #23, #259, #943 ) ;
#819 = CARTESIAN_POINT ( 'NONE',  ( -7.500000000000001776, 3.950000000000000178, 6.499999999999992006 ) ) ;
#820 = LINE ( 'NONE', #368, #479 ) ;
#821 = CIRCLE ( 'NONE', #49, 0.7499999999999997780 ) ;
#822 = CARTESIAN_POINT ( 'NONE',  ( 1.080000000000000293, -5.831370849898474873, 1.080000000000000071 ) ) ;
#823 = VECTOR ( 'NONE', #184, 1000.000000000000000 ) ;
#824 = FACE_OUTER_BOUND ( 'NONE', #685, .T. ) ;
#825 = CARTESIAN_POINT ( 'NONE',  ( -6.500000000000001776, 0.2500000000000002220, -6.499999999999999112 ) ) ;
#826 = ADVANCED_FACE ( 'NONE', ( #851, #209 ), #590, .T. ) ;
#827 = VECTOR ( 'NONE', #598, 1000.000000000000000 ) ;
#828 = FACE_OUTER_BOUND ( 'NONE', #414, .T. ) ;
#829 = DIRECTION ( 'NONE',  ( 0.000000000000000000, 0.000000000000000000, 1.000000000000000000 ) ) ;
#830 = CARTESIAN_POINT ( 'NONE',  ( -6.499999999999994671, 0.2500000000000002220, 7.499999999999999112 ) ) ;
#831 = SURFACE_STYLE_FILL_AREA ( #785 ) ;
#832 = EDGE_CURVE ( 'NONE', #21, #912, #186, .T. ) ;
#833 = CIRCLE ( 'NONE', #911, 0.3999999999999999667 ) ;
#834 = CIRCLE ( 'NONE', #215, 0.2500000000000002220 ) ;
#835 = CIRCLE ( 'NONE', #818, 0.3999999999999999667 ) ;
#836 = CARTESIAN_POINT ( 'NONE',  ( 6.500000000000001776, 3.950000000000000178, -6.499999999999999112 ) ) ;
#837 = CARTESIAN_POINT ( 'NONE',  ( -7.250000000000000888, 0.000000000000000000, -6.499999999999992006 ) ) ;
#838 = CARTESIAN_POINT ( 'NONE',  ( 1.080000000000000293, 4.200000000000000178, 1.080000000000000071 ) ) ;
#839 = VECTOR ( 'NONE', #466, 1000.000000000000000 ) ;
#840 = LINE ( 'NONE', #656, #535 ) ;
#841 = TOROIDAL_SURFACE ( 'NONE', #33, 0.7500000000000000000, 0.2500000000000000000 ) ;
#842 = DIRECTION ( 'NONE',  ( -6.938893903907222067E-15, 0.000000000000000000, -1.000000000000000000 ) ) ;
#843 = ADVANCED_FACE ( 'NONE', ( #521 ), #188, .T. ) ;
#844 = CIRCLE ( 'NONE', #340, 0.2500000000000002220 ) ;
#845 = CARTESIAN_POINT ( 'NONE',  ( 6.500000000000001776, 3.950000000000000178, 6.499999999999999112 ) ) ;
#846 = LINE ( 'NONE', #745, #839 ) ;
#847 = CIRCLE ( 'NONE', #611, 1.000000000000000000 ) ;
#848 = EDGE_CURVE ( 'NONE', #10, #915, #840, .T. ) ;
#849 = FACE_OUTER_BOUND ( 'NONE', #38, .T. ) ;
#850 = AXIS2_PLACEMENT_3D ( 'NONE', #550, #665, #933 ) ;
#851 = FACE_BOUND ( 'NONE', #30, .T. ) ;
#852 = DIRECTION ( 'NONE',  ( 0.000000000000000000, 1.000000000000000000, 0.000000000000000000 ) ) ;
#853 = DIRECTION ( 'NONE',  ( -0.000000000000000000, -1.000000000000000000, -0.000000000000000000 ) ) ;
#854 = CIRCLE ( 'NONE', #400, 1.000000000000000000 ) ;
#855 = DIRECTION ( 'NONE',  ( 0.000000000000000000, -0.000000000000000000, -1.000000000000000000 ) ) ;
#856 = CARTESIAN_POINT ( 'NONE',  ( -7.500000000000001776, 4.200000000000000178, -6.499999999999992006 ) ) ;
#857 = DIRECTION ( 'NONE',  ( 1.000000000000000000, 6.938893903907221278E-15, -0.000000000000000000 ) ) ;
#858 = DIRECTION ( 'NONE',  ( 0.000000000000000000, 0.000000000000000000, 1.000000000000000000 ) ) ;
#859 = AXIS2_PLACEMENT_3D ( 'NONE', #73, #79, #767 ) ;
#860 = DIRECTION ( 'NONE',  ( -0.000000000000000000, -1.000000000000000000, 0.000000000000000000 ) ) ;
#861 = VECTOR ( 'NONE', #273, 1000.000000000000000 ) ;
#862 = EDGE_CURVE ( 'NONE', #912, #748, #178, .T. ) ;
#863 = CARTESIAN_POINT ( 'NONE',  ( 7.250000000000000000, 4.200000000000000178, 6.499999999999999112 ) ) ;
#864 = AXIS2_PLACEMENT_3D ( 'NONE', #609, #584, #712 ) ;
#865 = CARTESIAN_POINT ( 'NONE',  ( -6.499999999999994671, 3.950000000000000178, 7.499999999999999112 ) ) ;
#866 =( LENGTH_UNIT ( ) NAMED_UNIT ( * ) SI_UNIT ( .MILLI., .METRE. ) );
#867 = VECTOR ( 'NONE', #940, 1000.000000000000000 ) ;
#868 = CARTESIAN_POINT ( 'NONE',  ( -7.250000000000000888, 3.950000000000000178, 6.499999999999999112 ) ) ;
#869 = CIRCLE ( 'NONE', #190, 0.2500000000000002220 ) ;
#870 = DIRECTION ( 'NONE',  ( 0.000000000000000000, 0.000000000000000000, 1.000000000000000000 ) ) ;
#871 = FACE_OUTER_BOUND ( 'NONE', #392, .T. ) ;
#872 = LINE ( 'NONE', #809, #512 ) ;
#873 = ADVANCED_FACE ( 'NONE', ( #849 ), #896, .T. ) ;
#874 = EDGE_CURVE ( 'NONE', #581, #249, #891, .T. ) ;
#875 = AXIS2_PLACEMENT_3D ( 'NONE', #333, #427, #399 ) ;
#876 = CIRCLE ( 'NONE', #528, 0.2500000000000000000 ) ;
#877 = CARTESIAN_POINT ( 'NONE',  ( 1.080000000000000293, 4.200000000000000178, 1.479999999999999982 ) ) ;
#878 = VECTOR ( 'NONE', #671, 1000.000000000000000 ) ;
#879 = VECTOR ( 'NONE', #977, 1000.000000000000000 ) ;
#880 = CARTESIAN_POINT ( 'NONE',  ( 7.500000000000001776, 3.950000000000000178, 6.499999999999992006 ) ) ;
#881 = FACE_OUTER_BOUND ( 'NONE', #638, .T. ) ;
#882 = EDGE_CURVE ( 'NONE', #367, #991, #579, .T. ) ;
#883 = CARTESIAN_POINT ( 'NONE',  ( 1.080000000000000293, 4.200000000000000178, 1.080000000000000071 ) ) ;
#884 = VECTOR ( 'NONE', #403, 1000.000000000000000 ) ;
#885 = CYLINDRICAL_SURFACE ( 'NONE', #266, 0.2500000000000002220 ) ;
#886 = CARTESIAN_POINT ( 'NONE',  ( 7.250000000000000888, 0.000000000000000000, 6.499999999999992006 ) ) ;
#887 = EDGE_LOOP ( 'NONE', ( #648, #323, #740, #763 ) ) ;
#888 = LINE ( 'NONE', #187, #884 ) ;
#889 = DIRECTION ( 'NONE',  ( -0.000000000000000000, -1.000000000000000000, 0.000000000000000000 ) ) ;
#890 = EDGE_LOOP ( 'NONE', ( #357, #439, #41, #120 ) ) ;
#891 = LINE ( 'NONE', #45, #879 ) ;
#892 = DIRECTION ( 'NONE',  ( 0.000000000000000000, 0.000000000000000000, -1.000000000000000000 ) ) ;
#893 = EDGE_CURVE ( 'NONE', #60, #559, #555, .T. ) ;
#894 = FACE_OUTER_BOUND ( 'NONE', #25, .T. ) ;
#895 = CIRCLE ( 'NONE', #639, 1.875000000000000222 ) ;
#896 = CYLINDRICAL_SURFACE ( 'NONE', #511, 0.2500000000000002220 ) ;
#897 = MECHANICAL_DESIGN_GEOMETRIC_PRESENTATION_REPRESENTATION (  '', ( #122 ), #5 ) ;
#898 = DIRECTION ( 'NONE',  ( 0.000000000000000000, 0.000000000000000000, -1.000000000000000000 ) ) ;
#899 = DIRECTION ( 'NONE',  ( 1.000000000000000000, 0.000000000000000000, 6.938893903907221278E-15 ) ) ;
#900 = FACE_OUTER_BOUND ( 'NONE', #69, .T. ) ;
#901 = SURFACE_STYLE_FILL_AREA ( #564 ) ;
#902 = DIRECTION ( 'NONE',  ( 0.000000000000000000, 0.000000000000000000, 1.000000000000000000 ) ) ;
#903 = DIRECTION ( 'NONE',  ( 6.938893903907221278E-15, 0.000000000000000000, 1.000000000000000000 ) ) ;
#904 = ADVANCED_FACE ( 'NONE', ( #916 ), #905, .T. ) ;
#905 = CYLINDRICAL_SURFACE ( 'NONE', #431, 0.3999999999999999667 ) ;
#906 = EDGE_CURVE ( 'NONE', #16, #19, #236, .T. ) ;
#907 = DIRECTION ( 'NONE',  ( -0.000000000000000000, -1.000000000000000000, 0.000000000000000000 ) ) ;
#908 = VECTOR ( 'NONE', #577, 1000.000000000000000 ) ;
#909 = PRODUCT_DEFINITION_SHAPE ( 'NONE', 'NONE',  #91 ) ;
#910 = CARTESIAN_POINT ( 'NONE',  ( 6.500000000000001776, 4.200000000000000178, 6.499999999999999112 ) ) ;
#911 = AXIS2_PLACEMENT_3D ( 'NONE', #321, #701, #412 ) ;
#912 = VERTEX_POINT ( 'NONE', #54 ) ;
#913 = EDGE_CURVE ( 'NONE', #53, #679, #220, .T. ) ;
#914 = CARTESIAN_POINT ( 'NONE',  ( 6.500000000000001776, 0.2500000000000002220, -6.499999999999999112 ) ) ;
#915 = VERTEX_POINT ( 'NONE', #729 ) ;
#916 = FACE_OUTER_BOUND ( 'NONE', #737, .T. ) ;
#917 = LINE ( 'NONE', #61, #569 ) ;
#918 = EDGE_LOOP ( 'NONE', ( #51, #362, #80, #653 ) ) ;
#919 = DIRECTION ( 'NONE',  ( -0.000000000000000000, -0.000000000000000000, -1.000000000000000000 ) ) ;
#920 = FILL_AREA_STYLE ('',( #156 ) ) ;
#921 = PLANE ( 'NONE',  #586 ) ;
#922 = AXIS2_PLACEMENT_3D ( 'NONE', #558, #284, #293 ) ;
#923 = CARTESIAN_POINT ( 'NONE',  ( -6.500000000000001776, 3.950000000000000178, 6.499999999999999112 ) ) ;
#924 = ADVANCED_FACE ( 'NONE', ( #230 ), #292, .T. ) ;
#925 = CARTESIAN_POINT ( 'NONE',  ( -6.500000000000001776, 4.200000000000000178, 6.499999999999999112 ) ) ;
#926 = DIRECTION ( 'NONE',  ( -6.938893903907228378E-15, 1.000000000000000000, 0.000000000000000000 ) ) ;
#927 = DIRECTION ( 'NONE',  ( -9.381338752702745572E-17, -0.6427876096865379196, -0.7660444431189792347 ) ) ;
#928 = EDGE_CURVE ( 'NONE', #748, #722, #239, .T. ) ;
#929 = MECHANICAL_DESIGN_GEOMETRIC_PRESENTATION_REPRESENTATION (  '', ( #980 ), #1007 ) ;
#930 = DIRECTION ( 'NONE',  ( -0.000000000000000000, -1.000000000000000000, 0.000000000000000000 ) ) ;
#931 = EDGE_CURVE ( 'NONE', #361, #637, #563, .T. ) ;
#932 = AXIS2_PLACEMENT_3D ( 'NONE', #599, #680, #538 ) ;
#933 = DIRECTION ( 'NONE',  ( 0.000000000000000000, 0.000000000000000000, -1.000000000000000000 ) ) ;
#934 = EDGE_CURVE ( 'NONE', #62, #748, #241, .T. ) ;
#935 = CARTESIAN_POINT ( 'NONE',  ( 1.080000000000000293, 4.900000000000000355, 1.080000000000000071 ) ) ;
#936 = CARTESIAN_POINT ( 'NONE',  ( 1.080000000000000293, -2.350000000000000089, 1.080000000000000071 ) ) ;
#937 =( NAMED_UNIT ( * ) SI_UNIT ( $, .STERADIAN. ) SOLID_ANGLE_UNIT ( ) );
#938 = AXIS2_PLACEMENT_3D ( 'NONE', #519, #217, #110 ) ;
#939 = CARTESIAN_POINT ( 'NONE',  ( -6.500000000000001776, 3.950000000000000178, -7.249999999999999112 ) ) ;
#940 = DIRECTION ( 'NONE',  ( 0.000000000000000000, 1.000000000000000000, 0.000000000000000000 ) ) ;
#941 = CARTESIAN_POINT ( 'NONE',  ( 6.500000000000001776, 0.2500000000000002220, -6.499999999999999112 ) ) ;
#942 = PRODUCT ( 'YG0043AA', 'YG0043AA', '', ( #98 ) ) ;
#943 = DIRECTION ( 'NONE',  ( 0.000000000000000000, 0.000000000000000000, 1.000000000000000000 ) ) ;
#944 = AXIS2_PLACEMENT_3D ( 'NONE', #121, #647, #206 ) ;
#945 =( LENGTH_UNIT ( ) NAMED_UNIT ( * ) SI_UNIT ( .MILLI., .METRE. ) );
#946 = DIRECTION ( 'NONE',  ( 0.000000000000000000, 0.000000000000000000, -1.000000000000000000 ) ) ;
#947 = ADVANCED_FACE ( 'NONE', ( #255 ), #683, .F. ) ;
#948 = CARTESIAN_POINT ( 'NONE',  ( 1.080000000000000071, 4.900000000000000355, 0.03922751481595025680 ) ) ;
#949 = FILL_AREA_STYLE_COLOUR ( '', #485 ) ;
#950 = AXIS2_PLACEMENT_3D ( 'NONE', #606, #676, #855 ) ;
#951 = CARTESIAN_POINT ( 'NONE',  ( 1.080000000000000071, 4.200000000000000178, -0.7949999999999999289 ) ) ;
#952 = EDGE_CURVE ( 'NONE', #777, #386, #552, .T. ) ;
#953 = STYLED_ITEM ( 'NONE', ( #502 ), #492 ) ;
#954 = CARTESIAN_POINT ( 'NONE',  ( -7.500000000000001776, 0.2500000000000002220, 6.499999999999992006 ) ) ;
#955 = DIRECTION ( 'NONE',  ( 0.000000000000000000, 0.000000000000000000, -1.000000000000000000 ) ) ;
#956 = CARTESIAN_POINT ( 'NONE',  ( 1.080000000000000293, 4.200000000000000178, 0.6799999999999999378 ) ) ;
#957 = CARTESIAN_POINT ( 'NONE',  ( 6.499999999999994671, 0.000000000000000000, -7.249999999999998224 ) ) ;
#958 = CARTESIAN_POINT ( 'NONE',  ( -6.500000000000001776, 0.2500000000000002220, 6.499999999999999112 ) ) ;
#959 = EDGE_CURVE ( 'NONE', #722, #730, #578, .T. ) ;
#960 = AXIS2_PLACEMENT_3D ( 'NONE', #167, #794, #997 ) ;
#961 = DIRECTION ( 'NONE',  ( 1.000000000000000000, 0.000000000000000000, 0.000000000000000000 ) ) ;
#962 = CARTESIAN_POINT ( 'NONE',  ( -7.250000000000000888, 4.200000000000000178, 6.499999999999993783 ) ) ;
#963 = EDGE_CURVE ( 'NONE', #703, #559, #223, .T. ) ;
#964 = ADVANCED_FACE ( 'NONE', ( #881 ), #553, .T. ) ;
#965 = DIRECTION ( 'NONE',  ( 0.000000000000000000, 0.000000000000000000, -1.000000000000000000 ) ) ;
#966 = DIRECTION ( 'NONE',  ( 0.000000000000000000, 0.000000000000000000, -1.000000000000000000 ) ) ;
#967 = ORIENTED_EDGE ( 'NONE', *, *, #1004, .T. ) ;
#968 = PLANE ( 'NONE',  #741 ) ;
#969 = ORIENTED_EDGE ( 'NONE', *, *, #152, .F. ) ;
#970 = CARTESIAN_POINT ( 'NONE',  ( -7.250000000000000888, 3.950000000000000178, -6.499999999999992006 ) ) ;
#971 = DIRECTION ( 'NONE',  ( -0.000000000000000000, -1.000000000000000000, 0.000000000000000000 ) ) ;
#972 = AXIS2_PLACEMENT_3D ( 'NONE', #756, #348, #290 ) ;
#973 = DIRECTION ( 'NONE',  ( 0.000000000000000000, 1.000000000000000000, -0.000000000000000000 ) ) ;
#974 = ORIENTED_EDGE ( 'NONE', *, *, #681, .T. ) ;
#975 = DIRECTION ( 'NONE',  ( 0.000000000000000000, 1.000000000000000000, 0.000000000000000000 ) ) ;
#976 = UNCERTAINTY_MEASURE_WITH_UNIT (LENGTH_MEASURE( 1.000000000000000082E-05 ), #195, 'distance_accuracy_value', 'NONE');
#977 = DIRECTION ( 'NONE',  ( 0.000000000000000000, 0.000000000000000000, -1.000000000000000000 ) ) ;
#978 = DIRECTION ( 'NONE',  ( 0.000000000000000000, 1.000000000000000000, 0.000000000000000000 ) ) ;
#979 = ORIENTED_EDGE ( 'NONE', *, *, #418, .T. ) ;
#980 = STYLED_ITEM ( 'NONE', ( #557 ), #22 ) ;
#981 = ORIENTED_EDGE ( 'NONE', *, *, #200, .F. ) ;
#982 = EDGE_CURVE ( 'NONE', #700, #695, #225, .T. ) ;
#983 = ORIENTED_EDGE ( 'NONE', *, *, #882, .T. ) ;
#984 = CARTESIAN_POINT ( 'NONE',  ( 6.499999999999994671, 0.2500000000000002220, 7.499999999999999112 ) ) ;
#985 = ORIENTED_EDGE ( 'NONE', *, *, #483, .T. ) ;
#986 = AXIS2_PLACEMENT_3D ( 'NONE', #610, #853, #242 ) ;
#987 = DIRECTION ( 'NONE',  ( 1.000000000000000000, 0.000000000000000000, -6.938893903907222067E-15 ) ) ;
#988 = ORIENTED_EDGE ( 'NONE', *, *, #166, .T. ) ;
#989 = ORIENTED_EDGE ( 'NONE', *, *, #104, .T. ) ;
#990 = CARTESIAN_POINT ( 'NONE',  ( -6.499999999999994671, 0.2500000000000002220, -7.249999999999998224 ) ) ;
#991 = VERTEX_POINT ( 'NONE', #258 ) ;
#992 = CARTESIAN_POINT ( 'NONE',  ( -6.500000000000001776, 0.2500000000000002220, -6.499999999999999112 ) ) ;
#993 = ORIENTED_EDGE ( 'NONE', *, *, #117, .F. ) ;
#994 = EDGE_CURVE ( 'NONE', #78, #376, #888, .T. ) ;
#995 = ORIENTED_EDGE ( 'NONE', *, *, #18, .F. ) ;
#996 = ORIENTED_EDGE ( 'NONE', *, *, #862, .T. ) ;
#997 = DIRECTION ( 'NONE',  ( 0.000000000000000000, 0.000000000000000000, -1.000000000000000000 ) ) ;
#998 = EDGE_CURVE ( 'NONE', #711, #715, #234, .T. ) ;
#999 = ORIENTED_EDGE ( 'NONE', *, *, #913, .F. ) ;
#1000 = DIRECTION ( 'NONE',  ( 0.000000000000000000, 0.000000000000000000, -1.000000000000000000 ) ) ;
#1001 = ORIENTED_EDGE ( 'NONE', *, *, #906, .F. ) ;
#1002 = ORIENTED_EDGE ( 'NONE', *, *, #523, .T. ) ;
#1003 = ORIENTED_EDGE ( 'NONE', *, *, #200, .T. ) ;
#1004 = EDGE_CURVE ( 'NONE', #386, #367, #575, .T. ) ;
#1005 = CARTESIAN_POINT ( 'NONE',  ( 1.080000000000000293, 0.000000000000000000, 0.6799999999999999378 ) ) ;
#1006 = EDGE_LOOP ( 'NONE', ( #71, #75, #320, #422 ) ) ;
#1007 =( GEOMETRIC_REPRESENTATION_CONTEXT ( 3 ) GLOBAL_UNCERTAINTY_ASSIGNED_CONTEXT ( ( #520 ) ) GLOBAL_UNIT_ASSIGNED_CONTEXT ( ( #945, #395, #694 ) ) REPRESENTATION_CONTEXT ( 'NONE', 'WORKASPACE' ) );
ENDSEC;
END-ISO-10303-21;
